<?xml version="1.0" standalone="yes"?>
<svg version="1.1" xmlns="http://www.w3.org/2000/svg" xmlns:xlink="http://www.w3.org/1999/xlink" xmlns:ev="http://www.w3.org/2001/xml-events" width="310" height="310">
<path style="fill:#000000; stroke:none;" d="M0 0L0 310L310 310L310 0L0 0z"/>
<path style="fill:#fffffe; stroke:none;" d="M10 10L10 80L80 80L80 10L10 10M90 10L90 20L100 20L100 30L110 30L110 40L120 40L120 20L140 20L140 30L130 30L130 50L120 50L120 60L110 60L110 50L100 50L100 60L110 60L110 90L100 90L100 70L90 70L90 90L100 90L100 110L110 110L110 120L100 120L100 140L90 140L90 150L110 150L110 130L120 130L120 140L140 140L140 150L120 150L120 170L130 170L130 160L140 160L140 150L150 150L150 140L140 140L140 120L150 120L150 130L160 130L160 160L170 160L170 170L150 170L150 180L120 180L120 190L110 190L110 170L100 170L100 190L90 190L90 210L70 210L70 220L90 220L90 230L100 230L100 250L90 250L90 270L100 270L100 260L110 260L110 280L90 280L90 300L100 300L100 290L110 290L110 280L120 280L120 220L110 220L110 230L100 230L100 190L110 190L110 200L130 200L130 220L150 220L150 250L140 250L140 260L130 260L130 270L140 270L140 260L160 260L160 270L150 270L150 280L130 280L130 290L120 290L120 300L140 300L140 290L170 290L170 280L190 280L190 290L200 290L200 300L220 300L220 290L200 290L200 280L190 280L190 270L200 270L200 260L220 260L220 270L210 270L210 280L230 280L230 300L240 300L240 290L250 290L250 300L260 300L260 290L280 290L280 280L290 280L290 290L300 290L300 260L290 260L290 250L300 250L300 240L290 240L290 250L280 250L280 260L290 260L290 270L270 270L270 280L260 280L260 270L240 270L240 280L230 280L230 260L270 260L270 250L260 250L260 240L270 240L270 220L290 220L290 210L280 210L280 200L270 200L270 190L290 190L290 200L300 200L300 190L290 190L290 180L270 180L270 170L280 170L280 150L290 150L290 170L300 170L300 120L290 120L290 140L250 140L250 120L260 120L260 130L270 130L270 120L280 120L280 110L290 110L290 100L300 100L300 90L290 90L290 100L270 100L270 120L260 120L260 100L240 100L240 90L230 90L230 100L220 100L220 110L210 110L210 90L220 90L220 60L210 60L210 50L220 50L220 20L200 20L200 10L190 10L190 30L210 30L210 40L200 40L200 50L190 50L190 40L180 40L180 30L170 30L170 40L180 40L180 50L170 50L170 60L180 60L180 70L170 70L170 90L150 90L150 80L160 80L160 50L150 50L150 20L160 20L160 10L150 10L150 20L140 20L140 10L120 10L120 20L100 20L100 10L90 10M230 10L230 80L300 80L300 10L230 10z"/>
<path style="fill:#000000; stroke:none;" d="M20 20L20 70L70 70L70 20L20 20M240 20L240 70L290 70L290 20L240 20z"/>
<path style="fill:#fffffe; stroke:none;" d="M30 30L30 60L60 60L60 30L30 30M250 30L250 60L280 60L280 30L250 30z"/>
<path style="fill:#000000; stroke:none;" d="M130 50L130 60L120 60L120 80L130 80L130 100L110 100L110 110L130 110L130 120L140 120L140 110L160 110L160 100L150 100L150 90L140 90L140 80L150 80L150 50L130 50z"/>
<path style="fill:#fffffe; stroke:none;" d="M130 60L130 80L140 80L140 60L130 60z"/>
<path style="fill:#000000; stroke:none;" d="M190 60L190 70L180 70L180 90L190 90L190 100L200 100L200 80L210 80L210 60L190 60z"/>
<path style="fill:#fffffe; stroke:none;" d="M190 70L190 80L200 80L200 70L190 70M10 90L10 100L30 100L30 110L40 110L40 120L20 120L20 110L10 110L10 130L40 130L40 140L10 140L10 150L30 150L30 160L40 160L40 140L50 140L50 150L60 150L60 170L70 170L70 180L50 180L50 170L40 170L40 180L10 180L10 220L50 220L50 210L60 210L60 200L80 200L80 190L70 190L70 180L80 180L80 170L70 170L70 160L80 160L80 150L60 150L60 140L50 140L50 130L70 130L70 140L80 140L80 130L70 130L70 120L90 120L90 100L80 100L80 90L70 90L70 100L80 100L80 110L70 110L70 120L50 120L50 110L60 110L60 90L40 90L40 100L30 100L30 90L10 90M130 100L130 110L140 110L140 100L130 100z"/>
<path style="fill:#000000; stroke:none;" d="M170 100L170 120L160 120L160 130L170 130L170 140L180 140L180 150L170 150L170 160L180 160L180 170L170 170L170 190L180 190L180 180L190 180L190 200L160 200L160 180L150 180L150 190L130 190L130 200L140 200L140 210L150 210L150 200L160 200L160 210L170 210L170 230L180 230L180 210L190 210L190 220L200 220L200 230L210 230L210 210L230 210L230 200L240 200L240 210L260 210L260 200L250 200L250 180L260 180L260 190L270 190L270 180L260 180L260 170L270 170L270 150L260 150L260 170L240 170L240 160L250 160L250 150L240 150L240 160L210 160L210 170L230 170L230 180L210 180L210 210L200 210L200 160L190 160L190 150L230 150L230 130L220 130L220 140L200 140L200 130L210 130L210 110L190 110L190 120L200 120L200 130L170 130L170 120L180 120L180 100L170 100M230 100L230 110L220 110L220 120L240 120L240 100L230 100M40 120L40 130L50 130L50 120L40 120M30 190L30 210L50 210L50 200L60 200L60 190L50 190L50 200L40 200L40 190L30 190M220 220L220 250L250 250L250 220L220 220z"/>
<path style="fill:#fffffe; stroke:none;" d="M10 230L10 300L80 300L80 230L10 230M130 230L130 240L140 240L140 230L130 230M230 230L230 240L240 240L240 230L230 230z"/>
<path style="fill:#000000; stroke:none;" d="M20 240L20 290L70 290L70 240L20 240M170 240L170 250L160 250L160 260L170 260L170 270L180 270L180 260L200 260L200 240L190 240L190 250L180 250L180 240L170 240z"/>
<path style="fill:#fffffe; stroke:none;" d="M30 250L30 280L60 280L60 250L30 250M170 250L170 260L180 260L180 250L170 250z"/>
<path style="fill:#000000; stroke:none;" d="M250 280L250 290L260 290L260 280L250 280z"/>
</svg>
