<?xml version="1.0" standalone="no"?>
<!DOCTYPE svg PUBLIC "-//W3C//DTD SVG 20010904//EN"
 "http://www.w3.org/TR/2001/REC-SVG-20010904/DTD/svg10.dtd">
<svg version="1.0" xmlns="http://www.w3.org/2000/svg"
 width="512.000000pt" height="512.000000pt" viewBox="0 0 512.000000 512.000000"
 preserveAspectRatio="xMidYMid meet">
<metadata>
Created by potrace 1.14, written by Peter Selinger 2001-2017
</metadata>
<g transform="translate(0.000000,512.000000) scale(0.100000,-0.100000)"
fill="#000000" stroke="none">
<path d="M4127 4498 c-38 -73 -110 -184 -162 -248 -88 -109 -338 -333 -480
-431 -27 -18 -52 -37 -55 -40 -3 -4 -113 -77 -245 -164 -132 -86 -266 -175
-298 -196 -32 -22 -62 -39 -67 -39 -6 0 -10 -4 -10 -10 0 -5 -5 -10 -11 -10
-6 0 -17 -6 -24 -12 -7 -7 -37 -29 -65 -48 -195 -133 -348 -257 -483 -393
-296 -298 -424 -609 -404 -982 4 -60 8 -119 11 -130 2 -11 7 -40 12 -65 4 -25
9 -47 9 -50 6 -18 19 -96 17 -102 -1 -5 3 -8 10 -8 6 0 9 -2 6 -5 -3 -3 13
-56 34 -118 22 -62 42 -122 45 -134 4 -19 -33 -97 -62 -129 -5 -7 -28 -42 -50
-79 -22 -37 -49 -79 -61 -93 -11 -15 -31 -46 -44 -69 -13 -24 -27 -43 -31 -43
-4 0 -12 -12 -18 -27 -16 -40 -41 -80 -41 -68 0 6 -13 60 -29 120 l-29 110 22
30 c49 65 94 133 108 161 34 66 71 201 71 254 -1 114 -14 177 -60 285 -31 73
-124 224 -158 259 -8 8 -15 19 -15 25 0 6 -4 11 -8 11 -4 0 -15 12 -25 28 -9
15 -31 43 -48 62 -17 19 -43 51 -58 70 -14 19 -32 41 -39 49 -26 27 -149 198
-188 261 -56 89 -111 233 -113 295 -1 17 -4 15 -19 -10 -51 -84 -120 -279
-151 -420 -20 -94 -22 -120 -26 -270 -5 -222 32 -398 121 -578 36 -71 112
-190 126 -195 4 -2 8 -8 8 -13 0 -5 8 -17 18 -27 9 -10 28 -31 42 -47 58 -67
183 -173 272 -228 36 -23 68 -51 71 -62 2 -11 12 -56 22 -100 9 -44 19 -88 21
-98 2 -9 6 -27 9 -39 2 -12 -7 -46 -22 -76 -37 -76 -17 -101 81 -98 l38 1 117
200 c64 110 123 211 132 225 9 14 37 62 64 106 l47 81 112 28 c61 15 116 30
121 34 6 3 15 6 20 7 10 2 128 41 155 51 8 4 17 7 20 8 140 49 393 174 538
267 253 162 465 359 642 593 32 44 64 85 70 92 5 7 10 17 10 23 0 5 3 10 8 10
4 0 12 10 18 23 6 12 29 51 51 87 22 36 59 103 82 150 24 47 49 97 57 112 8
15 14 29 14 30 -1 3 6 23 45 123 22 58 64 183 69 208 2 7 6 19 9 27 7 15 34
125 43 170 2 14 9 45 14 70 23 110 46 299 55 450 4 63 8 117 10 119 3 2 0 12
-6 22 -5 11 -6 19 -2 19 9 0 8 73 -1 96 -3 7 -1 16 5 19 5 4 7 10 4 16 -3 5
-8 46 -10 91 -8 151 -39 385 -55 416 -4 8 -16 -7 -33 -40z m-2699 -2438 c147
-177 250 -420 254 -595 0 -38 -9 -110 -21 -150 -11 -40 -49 -110 -56 -104 -2
2 1 26 6 53 19 104 -7 335 -51 441 -4 11 -14 36 -20 55 -24 68 -46 116 -102
227 -32 62 -54 113 -50 113 4 0 22 -18 40 -40z"/>
</g>
</svg>
