<?xml version="1.0" encoding="utf-8"?>
<!-- Generator: Adobe Illustrator 27.0.1, SVG Export Plug-In . SVG Version: 6.00 Build 0)  -->
<svg version="1.1" id="Layer_1" xmlns="http://www.w3.org/2000/svg" xmlns:xlink="http://www.w3.org/1999/xlink" x="0px" y="0px"
	 viewBox="0 0 2962.2 860.2" style="enable-background:new 0 0 2962.2 860.2;" xml:space="preserve">
<style type="text/css">
	.st0{fill:#FFFFFF;stroke:#000000;stroke-miterlimit:10;}
	.st1{fill:#17541F;stroke:#000000;stroke-miterlimit:10;}
</style>
<path class="st0" d="M1055.6,639.7v-20.6c-18,20-43.1,30.1-75.4,30.1c-22.4,0-42.8-5.8-61-17.5c-18.3-11.7-32.5-27.8-42.9-48.3
	c-10.3-20.5-15.5-43.3-15.5-68.4c0-25.1,5.2-48,15.5-68.5s24.6-36.6,42.9-48.3s38.6-17.5,61-17.5c32.3,0,57.5,10,75.4,30.1v-20.6
	h85.3v249.6L1055.6,639.7L1055.6,639.7z M1059.1,514.9c0-17.4-5.2-31.9-15.5-43.8c-10.3-11.8-23.9-17.7-40.6-17.7
	c-16.8,0-30.2,5.9-40.4,17.7c-10.2,11.8-15.3,26.4-15.3,43.8c0,17.4,5.1,31.9,15.3,43.8c10.2,11.8,23.6,17.7,40.4,17.7
	c16.8,0,30.3-5.9,40.6-17.7C1054,546.9,1059.1,532.3,1059.1,514.9z"/>
<path class="st0" d="M1417.8,398.2c18.3,11.7,32.5,27.8,42.9,48.3c10.3,20.5,15.5,43.3,15.5,68.5c0,25.1-5.2,48-15.5,68.4
	c-10.3,20.5-24.6,36.6-42.9,48.3s-38.6,17.5-61,17.5c-32.3,0-57.5-10-75.4-30.1v165.6h-85.3V390.2h85.3v20.6
	c18-20,43.1-30.1,75.4-30.1C1379.2,380.7,1399.5,386.6,1417.8,398.2z M1389.5,514.9c0-17.4-5.1-31.9-15.3-43.8
	c-10.2-11.8-23.6-17.7-40.4-17.7s-30.2,5.9-40.4,17.7c-10.2,11.8-15.3,26.4-15.3,43.8c0,17.4,5.1,31.9,15.3,43.8
	c10.2,11.8,23.6,17.7,40.4,17.7s30.2-5.9,40.4-17.7S1389.5,532.3,1389.5,514.9z"/>
<path class="st0" d="M1713.6,555.3l53,49.4c-28.1,29.6-66.7,44.4-115.8,44.4c-28.1,0-53-5.8-74.5-17.5s-38.2-27.7-49.8-48
	c-11.7-20.3-17.7-43.2-18-68.7c0-24.8,5.9-47.5,17.7-68c11.8-20.5,28.1-36.7,48.7-48.5s43.5-17.7,68.7-17.7
	c24.8,0,47.6,6.1,68.2,18.2s37,29.5,49.1,52.3c12.1,22.7,18.2,49.1,18.2,79l-0.4,11.7h-181.8c3.6,11.4,10.5,20.7,20.9,28.1
	c10.3,7.3,21.3,11,33,11c14.4,0,26.3-2.2,35.7-6.5C1695.8,570.1,1704.9,563.7,1713.6,555.3z M1596.9,486.2h92.9
	c-2.1-12.3-7.5-22.1-16.2-29.4s-18.7-11-30.1-11s-21.5,3.7-30.3,11S1599,473.9,1596.9,486.2z"/>
<path class="st0" d="M1908.8,418.4c7.8-10.8,17.2-19,28.3-24.7s22-8.5,32.8-8.5c11.4,0,20,1.6,26,4.9l-10.8,72.7
	c-8.4-2.1-15.7-3.1-22-3.1c-17.1,0-30.4,4.3-39.9,12.8c-9.6,8.5-14.4,24.2-14.4,46.9v120.3h-85.3V390.2h85.3V418.4L1908.8,418.4z"/>
<path class="st0" d="M2113,258.2v381.5h-85.3V258.2H2113z"/>
<path class="st0" d="M2360.8,555.3l53,49.4c-28.1,29.6-66.7,44.4-115.8,44.4c-28.1,0-53-5.8-74.5-17.5s-38.2-27.7-49.8-48
	c-11.7-20.3-17.7-43.2-18-68.7c0-24.8,5.9-47.5,17.7-68s28.1-36.7,48.7-48.5c20.6-11.8,43.5-17.7,68.7-17.7
	c24.8,0,47.6,6.1,68.2,18.2c20.6,12.1,37,29.5,49.1,52.3c12.1,22.7,18.2,49.1,18.2,79l-0.4,11.7h-181.8
	c3.6,11.4,10.5,20.7,20.9,28.1c10.3,7.3,21.3,11,33,11c14.4,0,26.3-2.2,35.7-6.5C2343.1,570.1,2352.1,563.7,2360.8,555.3z
	 M2244.1,486.2h92.9c-2.1-12.3-7.5-22.1-16.2-29.4s-18.7-11-30.1-11s-21.5,3.7-30.3,11C2251.7,464.1,2246.2,473.9,2244.1,486.2z"/>
<path class="st0" d="M2565.9,446.3c-9.9,0-17.1,1.1-21.5,3.4c-4.5,2.2-6.7,5.9-6.7,11s3.4,8.8,10.3,11.2c6.9,2.4,18,4.9,33.2,7.6
	c20,3,37,6.7,50.9,11.2s26,12.1,36.1,22.9c10.2,10.8,15.3,25.9,15.3,45.3c0,29.9-10.9,52.4-32.8,67.6
	c-21.8,15.1-50.3,22.7-85.3,22.7c-25.7,0-49.5-3.7-71.4-11c-21.8-7.3-37.4-14.7-46.7-22.2l33.7-60.6c10.2,9,23.4,15.8,39.7,20.4
	c16.3,4.6,31.3,7,45.1,7c19.7,0,29.6-5.2,29.6-15.7c0-5.4-3.3-9.4-9.9-11.9c-6.6-2.5-17.2-5.2-31.9-7.9c-18.9-3.3-34.9-7.2-48-11.7
	c-13.2-4.5-24.6-12.2-34.3-23.1c-9.7-10.9-14.6-26-14.6-45.1c0-27.2,9.7-48.5,29-63.7c19.3-15.3,46-22.9,80.1-22.9
	c23.3,0,44.4,3.6,63.3,10.8c18.9,7.2,34,14.5,45.3,22l-32.8,58.8c-10.8-7.5-23.2-13.7-37.3-18.6
	C2590.5,448.7,2577.6,446.3,2565.9,446.3z"/>
<path class="st0" d="M2817.3,446.3c-9.9,0-17.1,1.1-21.5,3.4c-4.5,2.2-6.7,5.9-6.7,11s3.4,8.8,10.3,11.2c6.9,2.4,18,4.9,33.2,7.6
	c20,3,37,6.7,50.9,11.2s26,12.1,36.1,22.9c10.2,10.8,15.3,25.9,15.3,45.3c0,29.9-10.9,52.4-32.8,67.6
	c-21.8,15.1-50.3,22.7-85.3,22.7c-25.7,0-49.5-3.7-71.4-11c-21.8-7.3-37.4-14.7-46.7-22.2l33.7-60.6c10.2,9,23.4,15.8,39.7,20.4
	c16.3,4.6,31.3,7,45.1,7c19.8,0,29.6-5.2,29.6-15.7c0-5.4-3.3-9.4-9.9-11.9c-6.6-2.5-17.2-5.2-31.9-7.9c-18.9-3.3-34.9-7.2-48-11.7
	c-13.2-4.5-24.6-12.2-34.3-23.1c-9.7-10.9-14.6-26-14.6-45.1c0-27.2,9.7-48.5,29-63.7c19.3-15.3,46-22.9,80.1-22.9
	c23.3,0,44.4,3.6,63.3,10.8c18.9,7.2,34,14.5,45.3,22l-32.8,58.8c-10.8-7.5-23.2-13.7-37.3-18.6
	C2841.8,448.7,2828.9,446.3,2817.3,446.3z"/>
<g>
	<path class="st0" d="M2508,724h60.2v17.3H2508V724z"/>
	<path class="st0" d="M2629.2,694.4c4.9-2,10.2-3.1,16-3.1c10.9,0,19.5,3.4,25.9,10.2s9.6,16.7,9.6,29.6v57.3h-19.6v-52.6
		c0-9.3-1.7-16.2-5.1-20.7c-3.4-4.5-9.1-6.7-17-6.7c-6.5,0-11.8,2.4-16.1,7.1c-4.3,4.8-6.4,11.5-6.4,20.2v52.6h-19.6v-94.6h19.6v9.5
		C2620.2,699.4,2624.4,696.4,2629.2,694.4z"/>
	<path class="st0" d="M2790.3,833.2c-8.6,6.8-19.4,10.2-32.3,10.2c-7.9,0-15.2-1.4-21.9-4.1s-12.1-6.8-16.3-12.2s-6.6-11.9-7.1-19.6
		h19.6c0.7,6.1,3.5,10.8,8.4,13.9c4.9,3.2,10.7,4.8,17.4,4.8c7,0,13.1-2,18.2-6c5.1-4,7.7-10.3,7.7-18.9v-24.7
		c-3.6,3.4-8,6.2-13.3,8.2c-5.2,2.1-10.7,3.1-16.3,3.1c-8.7,0-16.6-2.1-23.7-6.4c-7.1-4.3-12.6-10-16.7-17.3c-4-7.3-6-15.5-6-24.6
		s2-17.3,6-24.7s9.6-13.2,16.7-17.4c7.1-4.3,15-6.4,23.7-6.4c5.7,0,11.1,1,16.3,3.1s9.6,4.8,13.3,8.2v-8.8h19.4v107.8
		C2803.2,815.9,2798.9,826.4,2790.3,833.2z M2782.2,755.7c2.6-4.7,3.8-10,3.8-15.9s-1.3-11.2-3.8-16c-2.6-4.8-6.1-8.5-10.5-11.1
		c-4.5-2.7-9.5-4-15.1-4c-5.8,0-10.9,1.4-15.4,4.3c-4.5,2.8-7.9,6.6-10.3,11.4c-2.4,4.8-3.6,9.9-3.6,15.5c0,5.4,1.2,10.5,3.6,15.3
		c2.4,4.8,5.8,8.6,10.3,11.5s9.6,4.3,15.4,4.3c5.6,0,10.6-1.4,15.1-4.1C2776.1,764.1,2779.6,760.4,2782.2,755.7z"/>
	<path class="st0" d="M2843.5,788.4h-21.6l37.9-48l-36.4-46.6h22.6l25.7,33.3l25.8-33.3h21.6l-36.2,45.9l37.9,48.6h-22.6l-27.4-35
		L2843.5,788.4z"/>
</g>
<path class="st0" d="M835.8,319.2c-11.5-18.9-27.4-33.7-47.6-44.7c-20.2-10.9-43-16.4-68.5-16.4h-90.6c-8.6,39.6-21.3,77.2-38,112.4
	c-10,21-21.3,41-33.9,59.9v209.2H647v-135h72.7c25.4,0,48.3-5.5,68.5-16.4s36.1-25.8,47.6-44.7c11.5-18.9,17.3-39.5,17.3-61.9
	C853.1,358.9,847.4,338.1,835.8,319.2z M747,416.6c-9.4,9-21.8,13.5-37,13.5l-62.8,0.4v-93.4l62.8-0.4c15.3,0,27.6,4.5,37,13.5
	s14.1,20,14.1,33.2C761.1,396.6,756.4,407.7,747,416.6z"/>
<path class="st1" d="M164.7,698.7c-3.5-16.5-10.4-49.6-11.3-49.6c-147.1-88-129.7-240.3-81-327.4C82.8,431.4,277,507.1,163.8,641.2
	c-0.9,1.7,5.2,22.6,10.4,41.8c22.6-38.3,56.6-84.4,54.8-88.8C89.7,254.7,525,228.6,615.5,17.9c40.9,203.7-20.9,518.9-370.8,599
	c-1.7,0.9-63.5,109.7-66.2,110.6c0-1.7-26.1-0.9-22.6-9.6C157.8,712.6,161.2,705.7,164.7,698.7L164.7,698.7z M160.4,616.9
	c44.4-51.4-7.8-139.3-39.2-168C174.3,540.2,170.8,593.3,160.4,616.9L160.4,616.9z"/>
</svg>
