<svg xmlns="http://www.w3.org/2000/svg" viewBox="0 0 198.4 238.9" style="enable-background:new 0 0 198.4 238.9" xml:space="preserve">
  <path d="M194.7 0C164.211 70.943 17.64 79.733 64.55 194.06c.59 1.468-10.848 17-18.47 29.897-1.758-6.453-3.816-13.486-3.516-14.075 38.109-45.141-27.26-70.643-30.776-107.583-16.423 29.318-22.286 80.623 27.25 110.23.29 0 2.637 11.138 3.816 16.712-1.169 2.348-2.348 4.695-2.927 6.454-1.168 2.926 7.622 2.637 7.622 3.226.879-.29 21.697-36.94 22.276-37.23C187.667 174.711 208.485 68.596 194.699 0zm-60.096 74.749c-55.11 49.246-64.49 85.897-62.732 103.777-18.47-43.682 35.772-91.76 62.732-103.777zM28.2 145.102c10.548 9.67 28.14 39.278 13.196 56.58 3.506-7.912 4.684-25.793-13.196-56.58z"/>
</svg>
