<svg xmlns="http://www.w3.org/2000/svg" viewBox="0 0 2897.4 896.6" style="enable-background:new 0 0 2897.4 896.6" xml:space="preserve">
  <path d="M1022.3 428.7c-17.8-19.9-42.7-29.8-74.7-29.8-22.3 0-42.4 5.7-60.5 17.3-18.1 11.6-32.3 27.5-42.5 47.8s-15.3 42.9-15.3 67.8 5.1 47.5 15.3 67.8c10.3 20.3 24.4 36.2 42.5 47.8 18.1 11.5 38.3 17.3 60.5 17.3 32 0 56.9-9.9 74.7-29.8V655.5h84.5V408.3h-84.5v20.4zM1010.5 575c-10.2 11.7-23.6 17.6-40.2 17.6s-29.9-5.9-40-17.6-15.1-26.1-15.1-43.3c0-17.1 5-31.6 15.1-43.3s23.4-17.6 40-17.6 30 5.9 40.2 17.6 15.3 26.1 15.3 43.3-5.1 31.6-15.3 43.3zM1381 416.1c-18.1-11.5-38.3-17.3-60.5-17.4-32 0-56.9 9.9-74.7 29.8v-20.4h-84.5v390.7h84.5v-164c17.8 19.9 42.7 29.8 74.7 29.8 22.3 0 42.4-5.7 60.5-17.3s32.3-27.5 42.5-47.8c10.2-20.3 15.3-42.9 15.3-67.8s-5.1-47.5-15.3-67.8c-10.3-20.3-24.4-36.2-42.5-47.8zM1337.9 575c-10.1 11.7-23.4 17.6-40 17.6s-29.9-5.9-40-17.6-15.1-26.1-15.1-43.3c0-17.1 5-31.6 15.1-43.3s23.4-17.6 40-17.6 29.9 5.9 40 17.6 15.1 26.1 15.1 43.3-5.1 31.6-15.1 43.3zM1672.2 416.8c-20.5-12-43-18-67.6-18-24.9 0-47.6 5.9-68 17.6-20.4 11.7-36.5 27.7-48.2 48s-17.6 42.7-17.6 67.3c.3 25.2 6.2 47.8 17.8 68 11.5 20.2 28 36 49.3 47.6 21.3 11.5 45.9 17.3 73.8 17.3 48.6 0 86.8-14.7 114.7-44l-52.5-48.9c-8.6 8.3-17.6 14.6-26.7 19-9.3 4.3-21.1 6.4-35.3 6.4-11.6 0-22.5-3.6-32.7-10.9-10.3-7.3-17.1-16.5-20.7-27.8h180l.4-11.6c0-29.6-6-55.7-18-78.2s-28.3-39.8-48.7-51.8zm-113.9 86.4c2.1-12.1 7.5-21.8 16.2-29.1s18.7-10.9 30-10.9 21.2 3.6 29.8 10.9c8.6 7.2 13.9 16.9 16 29.1h-92zM1895.3 411.7c-11 5.6-20.3 13.7-28 24.4h-.1v-28h-84.5v247.3h84.5V536.3c0-22.6 4.7-38.1 14.2-46.5 9.5-8.5 22.7-12.7 39.6-12.7 6.2 0 13.5 1 21.8 3.1l10.7-72c-5.9-3.3-14.5-4.9-25.8-4.9-10.6 0-21.4 2.8-32.4 8.4zM1985 277.4h84.5v377.8H1985zM2313.2 416.8c-20.5-12-43-18-67.6-18-24.9 0-47.6 5.9-68 17.6s-36.5 27.7-48.2 48c-11.7 20.3-17.6 42.7-17.6 67.3.3 25.2 6.2 47.8 17.8 68 11.5 20.2 28 36 49.3 47.6 21.3 11.5 45.9 17.3 73.8 17.3 48.6 0 86.8-14.7 114.7-44l-52.5-48.9c-8.6 8.3-17.6 14.6-26.7 19-9.3 4.3-21.1 6.4-35.3 6.4-11.6 0-22.5-3.6-32.7-10.9-10.3-7.3-17.1-16.5-20.7-27.8h180l.4-11.6c0-29.6-6-55.7-18-78.2s-28.3-39.8-48.7-51.8zm-113.9 86.4c2.1-12.1 7.5-21.8 16.2-29.1s18.7-10.9 30-10.9 21.2 3.6 29.8 10.9c8.6 7.2 13.9 16.9 16 29.1h-92zM2583.6 507.7c-13.8-4.4-30.6-8.1-50.5-11.1-15.1-2.7-26.1-5.2-32.9-7.6-6.8-2.4-10.2-6.1-10.2-11.1s2.3-8.7 6.7-10.9c4.4-2.2 11.5-3.3 21.3-3.3 11.6 0 24.3 2.4 38.1 7.2 13.9 4.8 26.2 11 36.9 18.4l32.4-58.2c-11.3-7.4-26.2-14.7-44.9-21.8-18.7-7.1-39.6-10.7-62.7-10.7-33.7 0-60.2 7.6-79.3 22.7-19.1 15.1-28.7 36.1-28.7 63.1 0 19 4.8 33.9 14.4 44.7 9.6 10.8 21 18.5 34 22.9 13.1 4.5 28.9 8.3 47.6 11.6 14.6 2.7 25.1 5.3 31.6 7.8s9.8 6.5 9.8 11.8c0 10.4-9.7 15.6-29.3 15.6-13.7 0-28.5-2.3-44.7-6.9-16.1-4.6-29.2-11.3-39.3-20.2l-33.3 60c9.2 7.4 24.6 14.7 46.2 22 21.7 7.3 45.2 10.9 70.7 10.9 34.7 0 62.9-7.4 84.5-22.4 21.7-15 32.5-37.3 32.5-66.9 0-19.3-5-34.2-15.1-44.9s-22-18.3-35.8-22.7zM2883.4 575.3c0-19.3-5-34.2-15.1-44.9s-22-18.3-35.8-22.7c-13.8-4.4-30.6-8.1-50.5-11.1-15.1-2.7-26.1-5.2-32.9-7.6-6.8-2.4-10.2-6.1-10.2-11.1s2.3-8.7 6.7-10.9c4.4-2.2 11.5-3.3 21.3-3.3 11.6 0 24.3 2.4 38.1 7.2 13.9 4.8 26.2 11 36.9 18.4l32.4-58.2c-11.3-7.4-26.2-14.7-44.9-21.8-18.7-7.1-39.6-10.7-62.7-10.7-33.7 0-60.2 7.6-79.3 22.7-19.1 15.1-28.7 36.1-28.7 63.1 0 19 4.8 33.9 14.4 44.7 9.6 10.8 21 18.5 34 22.9 13.1 4.5 28.9 8.3 47.6 11.6 14.6 2.7 25.1 5.3 31.6 7.8s9.8 6.5 9.8 11.8c0 10.4-9.7 15.6-29.3 15.6-13.7 0-28.5-2.3-44.7-6.9-16.1-4.6-29.2-11.3-39.3-20.2l-33.3 60c9.2 7.4 24.6 14.7 46.2 22 21.7 7.3 45.2 10.9 70.7 10.9 34.7 0 62.9-7.4 84.5-22.4 21.7-15 32.5-37.3 32.5-66.9zM2460.7 738.7h59.6v17.2h-59.6zM2596.5 706.4c-5.7 0-11 1-15.8 3s-9 5-12.5 8.9v-9.4h-19.4v93.6h19.4v-52c0-8.6 2.1-15.3 6.3-20 4.2-4.7 9.5-7.1 15.9-7.1 7.8 0 13.4 2.3 16.8 6.7 3.4 4.5 5.1 11.3 5.1 20.5v52h19.4v-56.8c0-12.8-3.2-22.6-9.5-29.3-6.4-6.7-14.9-10.1-25.7-10.1zM2733.8 717.7c-3.6-3.4-7.9-6.1-13.1-8.2s-10.6-3.1-16.2-3.1c-8.7 0-16.5 2.1-23.5 6.3s-12.5 10-16.5 17.3c-4 7.3-6 15.4-6 24.4 0 8.9 2 17.1 6 24.3 4 7.3 9.5 13 16.5 17.2s14.9 6.3 23.5 6.3c5.6 0 11-1 16.2-3.1 5.1-2.1 9.5-4.8 13.1-8.2v24.4c0 8.5-2.5 14.8-7.6 18.7-5 3.9-11 5.9-18 5.9-6.7 0-12.4-1.6-17.3-4.7-4.8-3.1-7.6-7.7-8.3-13.8h-19.4c.6 7.7 2.9 14.2 7.1 19.5s9.6 9.3 16.2 12c6.6 2.7 13.8 4 21.7 4 12.8 0 23.5-3.4 32-10.1 8.6-6.7 12.8-17.1 12.8-31.1V708.9h-19.2v8.8zm-1.6 52.4c-2.5 4.7-6 8.3-10.4 11.2-4.4 2.7-9.4 4-14.9 4-5.7 0-10.8-1.4-15.2-4.3s-7.8-6.7-10.2-11.4c-2.3-4.8-3.5-9.8-3.5-15.2 0-5.5 1.1-10.6 3.5-15.3s5.8-8.5 10.2-11.3 9.5-4.2 15.2-4.2c5.5 0 10.5 1.4 14.9 4s7.9 6.3 10.4 11 3.8 10 3.8 15.8-1.3 11-3.8 15.7zM2867.9 708.9h-21.4l-25.6 33-25.4-33h-22.4l36 46.1-37.6 47.5h21.4l27.2-34.6 27.1 34.7h22.4l-37.6-48.2zM757.6 293.7c-20-10.8-42.6-16.2-67.8-16.2H600c-8.5 39.2-21.1 76.4-37.6 111.3-9.9 20.8-21.1 40.6-33.6 59.4v207.2h88.9V521.5h72c25.2 0 47.8-5.4 67.8-16.2s35.7-25.6 47.1-44.2c11.4-18.7 17.1-39.1 17.1-61.3.1-22.7-5.6-43.3-17-61.9-11.4-18.7-27.1-33.4-47.1-44.2zm-41 140.6c-9.3 8.9-21.6 13.3-36.7 13.3l-62.2.4v-92.5l62.2-.4c15.1 0 27.3 4.4 36.7 13.3 9.4 8.9 14 19.9 14 32.9 0 13.2-4.6 24.1-14 33z"/>
  <path d="M140 713.7c-3.4-16.4-10.3-49.1-11.2-49.1C-16.9 577.5.4 426.6 48.6 340.4 59 449 251.2 524 139.1 656.8c-.9 1.7 5.2 22.4 10.3 41.4 22.4-37.9 56-83.6 54.3-87.9C65.9 273.9 496.9 248.1 586.6 39.4c40.5 201.8-20.7 513.9-367.2 593.2-1.7.9-62.9 108.6-65.5 109.5 0-1.7-25.9-.9-22.4-9.5 1.6-5.2 5.1-12 8.5-18.9zm-4.3-81.1c44-50.9-7.8-137.9-38.8-166.4 52.6 90.5 49.1 143.1 38.8 166.4z" style="fill:#17541f"/>
</svg>
