<svg width="48" height="48" viewBox="0 0 48 48" fill="none" xmlns="http://www.w3.org/2000/svg">
<path fill-rule="evenodd" clip-rule="evenodd" d="M43.8172 41.5434C42.3829 41.8079 41.2312 43.1206 41.5217 44.8225C41.7547 46.1894 43.1012 47.3992 44.7881 47.1056C46.1861 46.8621 47.405 45.5468 47.0884 43.808C46.8375 42.4312 45.5024 41.233 43.8172 41.5434Z" fill="#6E6E71"/>
<path fill-rule="evenodd" clip-rule="evenodd" d="M43.7669 41.982C40.5816 42.7777 41.8396 47.3868 44.85 46.666C45.9654 46.399 47.0063 45.2322 46.648 43.7474C46.3881 42.6708 45.2168 41.6197 43.7669 41.982Z" fill="white"/>
<path d="M43.0645 45.7051V42.9393H44.2409C44.5363 42.9393 44.7514 42.9642 44.8855 43.0138C45.0198 43.0634 45.1267 43.1519 45.2072 43.2786C45.2877 43.4062 45.3283 43.551 45.3283 43.7143C45.3283 43.9223 45.2679 44.0936 45.1463 44.2288C45.0244 44.364 44.843 44.449 44.6009 44.4845C44.7211 44.5545 44.8203 44.6319 44.8982 44.716C44.9768 44.8005 45.0822 44.9505 45.2149 45.1656L45.5522 45.7051H44.8846L44.4844 45.1013C44.3407 44.887 44.2423 44.7515 44.1887 44.6956C44.136 44.6404 44.0798 44.6015 44.0205 44.5811C43.9607 44.5604 43.8667 44.5502 43.738 44.5502H43.6245V45.7051H43.0645ZM43.6245 44.1097H44.0382C44.3058 44.1097 44.4727 44.0981 44.5396 44.0757C44.6059 44.053 44.6587 44.0139 44.6961 43.9583C44.7341 43.9031 44.7528 43.8336 44.7528 43.7506C44.7528 43.657 44.7276 43.5825 44.678 43.5246C44.6284 43.4671 44.5584 43.4311 44.4682 43.4164C44.4226 43.4098 44.2865 43.4067 44.0606 43.4067H43.6245V44.1097Z" fill="#6E6E71"/>
<path fill-rule="evenodd" clip-rule="evenodd" d="M19.9166 5.97219C19.1445 6.12529 17.3428 6.70439 17.2033 6.75879C14.4149 7.84479 12.0227 9.49929 10.0784 11.7801C9.46097 12.5041 8.77496 13.1886 8.52246 14.1575C8.18596 15.4481 9.01487 16.3646 10.2887 15.9941C11.026 15.7792 11.7081 15.3518 12.3906 14.9773C13.6294 14.2964 14.8032 13.4766 16.0896 12.9089C18.1662 11.9913 20.4175 11.7756 22.6322 12.0964C23.7726 12.2617 25.1993 12.6546 25.9034 13.0118C27.1047 13.6223 28.06 14.5045 28.3695 15.9184C28.4078 16.093 28.6371 16.2821 28.8217 16.3615C30.9936 17.2915 32.8154 18.026 32.8154 21.0843C32.8154 21.5871 32.6688 22.3238 32.327 22.9673C32.2771 23.0614 32.1677 23.1612 32.1011 23.079C31.5324 22.38 31.5846 22.2249 30.7135 21.8281C27.5906 20.4054 24.3747 21.2779 21.6732 23.4367C19.6635 25.0428 18.5821 27.2074 18.3902 29.7656C18.1203 33.3699 19.363 36.3451 22.4043 38.3796C25.1791 40.2357 28.2306 40.3865 31.2864 39.2047C35.5332 37.5623 38.4059 34.4519 40.1577 30.3045C41.6688 26.7278 41.9359 22.9976 40.9916 19.2517C39.5791 13.6467 36.179 9.60279 30.9386 7.16019C28.6184 6.07849 26.2214 5.57989 23.7726 5.57989C22.4995 5.57989 21.2138 5.71449 19.9166 5.97219Z" fill="#FF7D24"/>
<path fill-rule="evenodd" clip-rule="evenodd" d="M20.576 16.4515C20.5485 16.519 20.5992 16.5927 20.6718 16.5898C22.0874 16.5371 23.4781 16.4847 24.8671 16.4331C25.0136 16.4271 25.0431 16.2228 24.9036 16.1757C24.1009 15.9041 23.3006 15.6221 22.4881 15.3897C22.3019 15.3364 22.1279 15.3097 21.9643 15.3097C21.3441 15.3097 20.885 15.6921 20.576 16.4515Z" fill="#FF7D24"/>
<path d="M9.20181 9.24981C11.0333 7.41831 13.1975 5.95481 15.6336 4.90001C18.0603 3.84871 20.6898 3.31551 23.4467 3.31551C24.785 3.31551 26.0631 3.43541 27.2398 3.66981C28.4241 3.90791 29.5526 4.24781 30.5926 4.67871C31.6374 5.11071 32.6888 5.65381 33.7138 6.29331C34.7411 6.93561 35.8078 7.67521 36.8127 8.42891C37.0885 8.70781 37.4522 8.85441 37.8598 8.85441C38.2586 8.85441 38.6291 8.70021 38.9642 8.39691C39.4027 7.99551 39.4954 7.56491 39.4954 7.27411C39.4954 6.86501 39.3171 6.47611 38.9514 6.10651C37.9349 5.13161 36.7976 4.27271 35.5739 3.55331C34.3641 2.84151 33.0743 2.22611 31.7392 1.72271C30.4078 1.22101 29.0171 0.840008 27.6063 0.587708C26.1975 0.337108 24.798 0.210709 23.4467 0.210709C20.2376 0.210709 17.1827 0.828109 14.3614 2.04561C11.5443 3.26111 9.05841 4.93521 6.97321 7.02151C4.88601 9.10781 3.21281 11.5929 1.99811 14.4089C0.77951 17.231 0.162109 20.2876 0.162109 23.4942C0.162109 26.7024 0.77951 29.7582 1.99811 32.5795C3.21281 35.3957 4.88601 37.8817 6.97321 39.968C9.05841 42.054 11.5443 43.7282 14.3614 44.944C17.1827 46.162 20.2376 46.7788 23.4467 46.7788C26.2241 46.7788 29.0015 46.291 31.699 45.3275C34.4148 44.3575 36.8526 42.8633 38.9622 40.8706C39.3171 40.5148 39.4954 40.1256 39.4954 39.716C39.4954 39.3203 39.3366 38.9376 39.037 38.6102C38.6382 38.1694 38.2059 38.0782 37.9151 38.0782C37.5091 38.0782 37.1279 38.2434 36.8637 38.5136C34.8556 40.1577 32.7444 41.4449 30.5906 42.3409C28.4612 43.2247 26.0586 43.6732 23.4467 43.6732C20.6875 43.6732 18.0578 43.1397 15.6336 42.0897C13.1975 41.0358 11.0333 39.5726 9.20181 37.7397C7.36751 35.9045 5.90401 33.7403 4.85261 31.3082C3.80121 28.8811 3.26801 26.2526 3.26801 23.4942C3.26801 20.7381 3.80121 18.1095 4.85261 15.6819C5.90401 13.2503 7.36751 11.0861 9.20181 9.24981Z" fill="#565656"/>
</svg>
