<svg xmlns="http://www.w3.org/2000/svg" width="264.567" height="318.552" viewBox="0 0 70 84.284">
  <path style="fill:#fff;stroke-width:1.10017" d="M752.438 82.365C638.02 348.605 87.938 381.61 263.964 810.674c2.2 5.5-40.706 63.81-69.31 112.217-6.602-24.204-14.304-50.607-13.204-52.807C324.473 700.658 79.136 604.944 65.934 466.322 4.324 576.34-17.678 768.868 168.25 879.984c1.1 0 9.902 41.808 14.303 62.711-4.4 8.802-8.802 17.602-11.002 24.203-4.4 11.002 28.603 9.902 28.603 12.102 3.3-1.1 81.413-138.62 83.614-139.72 442.267-101.216 520.377-499.476 468.67-756.915ZM526.904 362.906c-206.831 184.828-242.036 322.35-235.435 389.46-69.31-163.926 134.22-344.353 235.435-389.46ZM127.543 626.947c39.606 36.306 105.616 147.422 49.508 212.332 13.202-29.704 17.602-96.814-49.508-212.332z" transform="matrix(.094 0 0 .094 -2.042 -7.742)" fill="#fff"/>
</svg>
