<?xml version="1.0" encoding="UTF-8" standalone="no"?>
<svg
   xmlns:dc="http://purl.org/dc/elements/1.1/"
   xmlns:cc="http://creativecommons.org/ns#"
   xmlns:rdf="http://www.w3.org/1999/02/22-rdf-syntax-ns#"
   xmlns:svg="http://www.w3.org/2000/svg"
   xmlns="http://www.w3.org/2000/svg"
   xmlns:sodipodi="http://sodipodi.sourceforge.net/DTD/sodipodi-0.dtd"
   xmlns:inkscape="http://www.inkscape.org/namespaces/inkscape"
   version="1.1"
   width="2897.3997"
   height="896.63574"
   id="svg9580"
   sodipodi:docname="logo.svg"
   inkscape:version="1.0.1 (3bc2e813f5, 2020-09-07)">
  <metadata
     id="metadata9586">
    <rdf:RDF>
      <cc:Work
         rdf:about="">
        <dc:format>image/svg+xml</dc:format>
        <dc:type
           rdf:resource="http://purl.org/dc/dcmitype/StillImage" />
      </cc:Work>
    </rdf:RDF>
  </metadata>
  <defs
     id="defs9584" />
  <sodipodi:namedview
     pagecolor="#ffffff"
     bordercolor="#666666"
     borderopacity="1"
     objecttolerance="10"
     gridtolerance="10"
     guidetolerance="10"
     inkscape:pageopacity="0"
     inkscape:pageshadow="2"
     inkscape:window-width="1920"
     inkscape:window-height="1016"
     id="namedview9582"
     showgrid="false"
     inkscape:zoom="0.46439736"
     inkscape:cx="1393.617"
     inkscape:cy="393.61704"
     inkscape:window-x="1280"
     inkscape:window-y="27"
     inkscape:window-maximized="1"
     inkscape:current-layer="g9578" />
  <g
     transform="matrix(10.638298,0,0,10.638298,-106.38296,-106.38298)"
     id="g9578">
    <defs
       id="SvgjsDefs1018" />
    <g
       id="SvgjsG1019"
       featureKey="root"
       fill="#000000" />
    <g
       id="SvgjsG1020"
       featureKey="symbol1"
       fill="#000000"
       transform="matrix(0.10341565,0,0,0.10341565,1.2287665,8.3453496)">
      <defs
         id="defs9568" />
      <g
         id="g9572">
        <path
           d="M 231,798 C 227,779 219,741 218,741 49,640 69,465 125,365 c 12,126 235,213 105,367 -1,2 6,26 12,48 26,-44 65,-97 63,-102 C 145,288 645,258 749,16 c 47,234 -24,596 -426,688 -2,1 -73,126 -76,127 0,-2 -30,-1 -26,-11 2,-6 6,-14 10,-22 z M 544,271 C 452,312 267,476 330,625 324,564 356,439 544,271 Z M 226,704 c 51,-59 -9,-160 -45,-193 61,105 57,166 45,193 z"
           style="fill:#17541f"
           id="path9570"
           sodipodi:nodetypes="ccccccccccccccccc" />
      </g>
    </g>
    <g
       id="SvgjsG1021"
       featureKey="text1"
       fill="#000000"
       transform="matrix(3.3407567,0,0,3.3407567,98.195992,2.9576938)">
      <path
         d="m 6.5,8.62 q 0.02,0.48 0.02,1.09 0,0.61 -0.02,1.07 0,0.54 -0.19,1.07 Q 6.12,12.38 5.74,12.8 5.36,13.22 4.79,13.46 4.22,13.7 3.48,13.7 H 2.46 v 5.22 q 0,0.28 0.08,0.41 0.08,0.13 0.16,0.15 0.12,0.06 0.26,0 V 20 H 0.54 v -0.52 q 0.16,0.06 0.24,0 0.1,-0.02 0.2,-0.15 0.1,-0.13 0.1,-0.41 V 6.78 Q 1.08,6.48 0.98,6.35 0.88,6.22 0.78,6.18 0.7,6.14 0.54,6.18 V 5.7 H 3.48 Q 4.22,5.7 4.79,5.94 5.36,6.18 5.74,6.6 6.12,7.02 6.31,7.54 6.5,8.06 6.5,8.62 Z M 5.08,8.18 Q 5.08,7.66 4.91,7.28 4.74,6.9 4.51,6.68 4.28,6.46 4.03,6.33 3.78,6.2 3.6,6.2 H 2.46 v 6.96 H 3.6 q 0.18,0 0.43,-0.1 0.25,-0.1 0.48,-0.35 0.23,-0.25 0.4,-0.61 0.17,-0.36 0.17,-0.9 z m 9.5,10.96 q 0,0.16 -0.08,0.33 -0.08,0.17 -0.23,0.32 -0.15,0.15 -0.38,0.27 -0.23,0.12 -0.53,0.12 -0.48,0 -0.86,-0.22 -0.38,-0.22 -0.52,-0.58 -0.12,-0.2 -0.18,-0.46 -0.26,0.54 -0.79,0.9 -0.53,0.36 -1.17,0.36 -0.8,0 -1.4,-0.58 Q 8.1,19.3 7.88,18.82 7.66,18.34 7.62,17.72 7.6,17.66 7.6,17.48 v -0.02 q 0.02,-0.34 0.12,-0.71 0.1,-0.37 0.31,-0.74 0.21,-0.37 0.5,-0.7 Q 8.82,14.98 9.16,14.74 9.24,14.7 9.29,14.65 9.34,14.6 9.44,14.54 L 9.5,14.51 9.56,14.48 q 0.36,-0.22 0.63,-0.4 0.27,-0.18 0.49,-0.34 0.12,-0.08 0.24,-0.18 0.12,-0.1 0.26,-0.2 0.18,-0.12 0.34,-0.28 0.16,-0.16 0.24,-0.38 0.12,-0.2 0.12,-0.48 0,-0.28 -0.06,-0.5 -0.08,-0.44 -0.41,-0.76 -0.33,-0.32 -0.73,-0.42 -0.18,-0.06 -0.34,-0.06 -0.56,0 -0.96,0.2 Q 9.12,10.8 9,10.95 8.88,11.1 8.87,11.23 q -0.01,0.13 0.05,0.21 0.06,0.08 0.16,0.12 0.04,0.02 0.05,0.02 0.01,0 0.05,0.02 0.26,0.1 0.43,0.35 0.17,0.25 0.17,0.55 0,0.38 -0.27,0.65 -0.27,0.27 -0.65,0.27 -0.4,0 -0.68,-0.27 Q 7.9,12.88 7.9,12.5 q 0,-0.34 0.09,-0.71 0.09,-0.37 0.27,-0.67 0.38,-0.56 0.91,-0.81 0.53,-0.25 1.17,-0.25 0.48,0 0.95,0.18 0.47,0.18 0.84,0.51 0.37,0.33 0.62,0.79 Q 13,12 13,12.6 v 5.88 q 0,0.36 0.01,0.47 0.01,0.11 0.01,0.15 v 0 q 0,0.26 0.16,0.42 0.16,0.16 0.38,0.16 0.26,0 0.42,-0.15 0.16,-0.15 0.18,-0.39 z m -3.14,-0.5 q 0.16,-0.28 0.19,-0.6 0.03,-0.32 0.03,-0.6 v -3.7 q -0.08,0.08 -0.17,0.15 -0.09,0.07 -0.19,0.17 -0.58,0.42 -0.99,0.77 -0.41,0.35 -0.69,0.72 -0.28,0.37 -0.44,0.79 -0.16,0.42 -0.2,0.96 v 0.3 q 0.02,0.76 0.41,1.19 0.39,0.43 1.11,0.43 0.32,0 0.58,-0.16 0.26,-0.18 0.36,-0.42 z m 6.88,-8.56 q 1.14,0.02 1.82,0.69 0.68,0.67 0.68,2.13 v 4.48 q 0,1.46 -0.68,2.12 -0.68,0.66 -1.82,0.7 h -0.06 q -0.34,0 -0.62,-0.08 h -0.02 q -0.02,0 -0.02,-0.02 -0.46,-0.16 -0.8,-0.44 l -0.19,-0.19 q 0,0 -0.15,-0.21 v 3.32 q 0,0.28 0.08,0.41 0.08,0.13 0.16,0.17 0.12,0.06 0.26,0 v 0.5 h -2.42 v -0.5 q 0.16,0.06 0.24,0 0.1,-0.04 0.19,-0.17 0.09,-0.13 0.09,-0.41 V 11.3 q 0,-0.28 -0.09,-0.41 -0.09,-0.13 -0.19,-0.17 -0.08,-0.04 -0.24,0 v -0.48 h 1.92 v 0.78 q 0.14,-0.22 0.34,-0.4 0.34,-0.3 0.8,-0.44 0,-0.02 0.02,-0.02 h 0.02 q 0.32,-0.08 0.62,-0.08 z m 1,2.38 V 12.44 Q 19.3,11.42 19.07,11 q -0.23,-0.42 -0.75,-0.46 -0.36,-0.02 -0.68,0.09 -0.32,0.11 -0.56,0.37 -0.24,0.26 -0.4,0.7 -0.16,0.44 -0.22,1.04 v 4.8 q 0.06,0.62 0.22,1.05 0.16,0.43 0.4,0.68 0.24,0.25 0.56,0.37 0.32,0.12 0.68,0.1 0.52,-0.04 0.75,-0.46 0.23,-0.42 0.25,-1.44 v -0.02 z m 5.06,-2.38 q 0.46,0 0.94,0.16 0.48,0.16 0.86,0.5 0.38,0.34 0.61,0.86 0.23,0.52 0.23,1.24 v 2.02 0.06 0.46 h -3.98 v 2.06 q 0,1.24 0.43,1.77 0.43,0.53 1.07,0.51 0.38,-0.02 0.75,-0.13 0.37,-0.11 0.64,-0.37 0.27,-0.26 0.45,-0.74 0.18,-0.48 0.18,-1.26 h 0.46 v 0.28 q 0,0.54 -0.12,1.03 -0.12,0.49 -0.42,0.85 -0.3,0.36 -0.77,0.57 -0.47,0.21 -1.15,0.23 -0.48,0 -0.98,-0.18 -0.5,-0.18 -0.9,-0.54 -0.4,-0.36 -0.66,-0.85 -0.26,-0.49 -0.26,-1.11 v -0.47 q 0,0 -0.01,-0.77 -0.01,-0.77 -0.01,-0.95 0,-0.18 -0.01,-0.99 -0.01,-0.81 -0.01,-0.87 v -0.59 q 0,-0.72 0.25,-1.25 0.25,-0.53 0.62,-0.86 0.37,-0.33 0.84,-0.5 0.47,-0.17 0.95,-0.17 z m 1.3,4.78 v -1.58 q 0,-0.76 -0.1,-1.27 -0.1,-0.51 -0.27,-0.82 -0.17,-0.31 -0.41,-0.43 -0.24,-0.12 -0.54,-0.12 -0.64,0 -0.97,0.56 -0.33,0.56 -0.33,2.08 v 1.58 z m 7.86,-3.2 q 0,0.04 0.02,0.16 0.02,0.12 0,0.2 -0.02,0.42 -0.29,0.69 -0.27,0.27 -0.65,0.27 -0.4,0 -0.67,-0.28 -0.27,-0.28 -0.27,-0.68 0,-0.5 0.38,-0.76 0.04,-0.02 0.05,-0.03 l 0.03,-0.03 q 0.14,-0.1 0.18,-0.29 0.04,-0.19 -0.24,-0.33 -0.18,-0.1 -0.36,-0.1 -0.6,-0.04 -1.06,0.36 -0.46,0.4 -0.62,1.4 v 6.68 q 0,0.28 0.08,0.41 0.08,0.13 0.16,0.15 0.12,0.06 0.26,0 V 20 h -2.42 v -0.52 q 0.16,0.06 0.24,0 0.1,-0.02 0.2,-0.15 0.1,-0.13 0.1,-0.41 V 11.3 q 0,-0.28 -0.1,-0.41 -0.1,-0.13 -0.2,-0.17 -0.08,-0.04 -0.24,0 v -0.5 h 1.92 v 0.82 q 0.14,-0.22 0.28,-0.41 0.14,-0.19 0.33,-0.32 0.19,-0.13 0.44,-0.21 0.25,-0.08 0.63,-0.08 0.58,0 1.08,0.42 0.5,0.42 0.74,1.22 z m 2.7,7.26 q 0,0.28 0.09,0.41 0.09,0.13 0.17,0.15 0.1,0.06 0.26,0 V 20 h -2.42 v -0.52 q 0.16,0.06 0.28,0 0.06,-0.02 0.16,-0.15 0.1,-0.13 0.1,-0.41 V 6.8 q 0,-0.3 -0.1,-0.43 Q 34.68,6.24 34.62,6.2 34.5,6.14 34.34,6.2 V 5.72 h 1.9 V 6.8 Z m 4.34,-8.84 q 0.46,0 0.94,0.16 0.48,0.16 0.86,0.5 0.38,0.34 0.61,0.86 0.23,0.52 0.23,1.24 v 2.02 0.06 0.46 h -3.98 v 2.06 q 0,1.24 0.43,1.77 0.43,0.53 1.07,0.51 0.38,-0.02 0.75,-0.13 0.37,-0.11 0.64,-0.37 0.27,-0.26 0.45,-0.74 0.18,-0.48 0.18,-1.26 h 0.46 v 0.28 q 0,0.54 -0.12,1.03 -0.12,0.49 -0.42,0.85 -0.3,0.36 -0.77,0.57 -0.47,0.21 -1.15,0.23 -0.48,0 -0.98,-0.18 -0.5,-0.18 -0.9,-0.54 -0.4,-0.36 -0.66,-0.85 -0.26,-0.49 -0.26,-1.11 v -0.47 q 0,0 -0.01,-0.77 -0.01,-0.77 -0.01,-0.95 0,-0.18 -0.01,-0.99 -0.01,-0.81 -0.01,-0.87 v -0.59 q 0,-0.72 0.25,-1.25 0.25,-0.53 0.62,-0.86 0.37,-0.33 0.84,-0.5 0.47,-0.17 0.95,-0.17 z m 1.3,4.78 v -1.58 q 0,-0.76 -0.1,-1.27 -0.1,-0.51 -0.27,-0.82 -0.17,-0.31 -0.41,-0.43 -0.24,-0.12 -0.54,-0.12 -0.64,0 -0.97,0.56 -0.33,0.56 -0.33,2.08 v 1.58 z m 6,5.02 q -0.02,0.02 -0.03,0.02 -0.01,0 -0.03,0.02 l -0.02,0.02 q -0.04,0.02 -0.09,0.04 -0.05,0.02 -0.09,0.04 -0.42,0.18 -0.98,0.18 -0.32,0 -0.62,-0.15 Q 45.72,19.9 45.5,19.8 45.28,19.7 45.13,19.71 44.98,19.72 44.98,20 H 44.6 v -2.4 h 0.48 q -0.04,0.64 0.14,1.1 0.12,0.4 0.47,0.75 0.35,0.35 1.05,0.35 0.46,0 0.76,-0.16 0.52,-0.26 0.71,-0.62 0.19,-0.36 0.15,-0.75 -0.04,-0.39 -0.29,-0.77 -0.25,-0.38 -0.61,-0.7 -0.24,-0.18 -0.5,-0.38 -0.26,-0.2 -0.52,-0.42 -0.7,-0.56 -1.11,-1.01 -0.41,-0.45 -0.63,-0.84 -0.22,-0.39 -0.3,-0.74 -0.08,-0.35 -0.08,-0.75 0,-0.24 0.03,-0.44 0.03,-0.2 0.07,-0.36 0.06,-0.34 0.2,-0.66 0.14,-0.32 0.4,-0.57 0.26,-0.25 0.64,-0.41 0.38,-0.16 0.92,-0.16 0.3,0 0.6,0.13 0.3,0.13 0.54,0.24 0.24,0.11 0.38,0.1 0.14,-0.01 0.14,-0.31 h 0.38 V 12.7 H 48.1 q 0.02,-0.6 -0.14,-1.08 -0.14,-0.42 -0.49,-0.76 -0.35,-0.34 -1.03,-0.34 -0.54,0 -0.88,0.24 -0.18,0.14 -0.31,0.41 -0.13,0.27 -0.15,0.59 -0.02,0.32 0.1,0.69 0.12,0.37 0.48,0.69 0.04,0.06 0.11,0.12 0.07,0.06 0.15,0.1 0.06,0.04 0.1,0.08 l 0.08,0.08 q 0.22,0.18 0.45,0.36 0.23,0.18 0.47,0.36 0.56,0.48 0.93,0.87 0.37,0.39 0.62,0.73 0.25,0.34 0.37,0.64 0.12,0.3 0.14,0.58 0.2,0.92 -0.07,1.55 -0.27,0.63 -0.69,0.99 h -0.02 q 0,0.04 -0.04,0.04 -0.04,0.04 -0.08,0.06 l -0.12,0.08 q 0,0 -0.12,0.06 v 0.02 q -0.02,0 -0.04,0.01 -0.02,0.01 -0.04,0.01 z m 5.94,0 q -0.02,0.02 -0.03,0.02 -0.01,0 -0.03,0.02 l -0.02,0.02 q -0.04,0.02 -0.09,0.04 -0.05,0.02 -0.09,0.04 -0.42,0.18 -0.98,0.18 -0.32,0 -0.62,-0.15 -0.3,-0.15 -0.52,-0.25 -0.22,-0.1 -0.37,-0.09 -0.15,0.01 -0.15,0.29 h -0.38 v -2.4 h 0.48 q -0.04,0.64 0.14,1.1 0.12,0.4 0.47,0.75 0.35,0.35 1.05,0.35 0.46,0 0.76,-0.16 0.52,-0.26 0.71,-0.62 0.19,-0.36 0.15,-0.75 -0.04,-0.39 -0.29,-0.77 -0.25,-0.38 -0.61,-0.7 -0.24,-0.18 -0.5,-0.38 -0.26,-0.2 -0.52,-0.42 -0.7,-0.56 -1.11,-1.01 -0.41,-0.45 -0.63,-0.84 -0.22,-0.39 -0.3,-0.74 -0.08,-0.35 -0.08,-0.75 0,-0.24 0.03,-0.44 0.03,-0.2 0.07,-0.36 0.06,-0.34 0.2,-0.66 0.14,-0.32 0.4,-0.57 0.26,-0.25 0.64,-0.41 0.38,-0.16 0.92,-0.16 0.3,0 0.6,0.13 0.3,0.13 0.54,0.24 0.24,0.11 0.38,0.1 0.14,-0.01 0.14,-0.31 h 0.38 v 2.48 h -0.52 q 0.02,-0.6 -0.14,-1.08 -0.14,-0.42 -0.49,-0.76 -0.35,-0.34 -1.03,-0.34 -0.54,0 -0.88,0.24 -0.18,0.14 -0.31,0.41 -0.13,0.27 -0.15,0.59 -0.02,0.32 0.1,0.69 0.12,0.37 0.48,0.69 0.04,0.06 0.11,0.12 0.07,0.06 0.15,0.1 0.06,0.04 0.1,0.08 l 0.08,0.08 q 0.22,0.18 0.45,0.36 0.23,0.18 0.47,0.36 0.56,0.48 0.93,0.87 0.37,0.39 0.62,0.73 0.25,0.34 0.37,0.64 0.12,0.3 0.14,0.58 0.2,0.92 -0.07,1.55 -0.27,0.63 -0.69,0.99 h -0.02 q 0,0.04 -0.04,0.04 -0.04,0.04 -0.08,0.06 l -0.12,0.08 q 0,0 -0.12,0.06 v 0.02 q -0.02,0 -0.04,0.01 -0.02,0.01 -0.04,0.01 z"
         id="path9575" />
    </g>
  </g>
</svg>
