<?xml version="1.0" encoding="utf-8"?>
<!-- Generator: Adobe Illustrator 25.0.1, SVG Export Plug-In . SVG Version: 6.00 Build 0)  -->
<svg version="1.1"
	 id="svg4812" inkscape:version="1.0.1 (3bc2e813f5, 2020-09-07)" sodipodi:docname="logo-dark-notext.svg" xmlns:cc="http://creativecommons.org/ns#" xmlns:dc="http://purl.org/dc/elements/1.1/" xmlns:inkscape="http://www.inkscape.org/namespaces/inkscape" xmlns:rdf="http://www.w3.org/1999/02/22-rdf-syntax-ns#" xmlns:sodipodi="http://sodipodi.sourceforge.net/DTD/sodipodi-0.dtd" xmlns:svg="http://www.w3.org/2000/svg"
	 xmlns="http://www.w3.org/2000/svg" xmlns:xlink="http://www.w3.org/1999/xlink" x="0px" y="0px" viewBox="0 0 198.4 238.9"
	 style="enable-background:new 0 0 198.4 238.9;" xml:space="preserve">
<sodipodi:namedview  bordercolor="#666666" borderopacity="1.0" id="base" inkscape:current-layer="SvgjsG1020" inkscape:cx="328.04904" inkscape:cy="330.33332" inkscape:document-rotation="0" inkscape:document-units="mm" inkscape:pageopacity="0.0" inkscape:pageshadow="2" inkscape:window-height="1016" inkscape:window-maximized="1" inkscape:window-width="1920" inkscape:window-x="1280" inkscape:window-y="27" inkscape:zoom="0.98994949" pagecolor="#ffffff" showgrid="false">
	</sodipodi:namedview>
<g id="layer1" transform="translate(-9.9999792,-10.000082)" inkscape:groupmode="layer" inkscape:label="Layer 1">
	<g id="SvgjsG1020" transform="matrix(0.10341565,0,0,0.10341565,1.2287665,8.3453496)">
		<path id="path57" d="M1967.5,16C1672.7,702,255.4,787,709,1892.5c5.7,14.2-104.9,164.4-178.6,289.1c-17-62.4-36.9-130.4-34-136.1
			c368.5-436.5-263.6-683.1-297.6-1040.3C40,1288.7-16.7,1784.8,462.3,2071.1c2.8,0,25.5,107.7,36.9,161.6
			c-11.3,22.7-22.7,45.4-28.3,62.4c-11.3,28.3,73.7,25.5,73.7,31.2c8.5-2.8,209.8-357.2,215.4-360
			C1899.5,1705.4,2100.8,679.3,1967.5,16z M1386.4,738.8C853.5,1215,762.8,1569.4,779.8,1742.3
			C601.2,1319.9,1125.7,855,1386.4,738.8z M357.5,1419.1c102,93.5,272.1,379.8,127.6,547.1C519,1889.7,530.4,1716.8,357.5,1419.1z"
			/>
	</g>
</g>
</svg>
