<svg viewBox="0 0 1008 379" fill="none" xmlns="http://www.w3.org/2000/svg">
<path d="M28.288 313.396L21.9171 325.419C21.9171 325.419 133.691 337.683 185.234 378.498C185.234 378.498 148.748 328.282 28.288 313.396Z" fill="#01A0C6"/>
<path d="M379.675 313.396L386.046 325.419C386.046 325.419 274.272 337.683 222.728 378.498C222.728 378.498 259.214 328.282 379.675 313.396Z" fill="#01A0C6"/>
<path d="M342.395 172.61L406.851 294.434C406.851 294.434 244.513 306.26 203.5 375.52V358.627C203.5 358.627 217.171 295.864 381.22 279.947L334.858 172.613H342.395V172.61Z" fill="#03426A"/>
<path d="M340.962 170.044C317.181 172.989 285.966 180.51 257.88 197.945C257.88 197.945 301.333 182.931 345.287 178.339L340.965 170.044H340.962Z" fill="#03426A"/>
<path d="M66.6351 179.175L-0.00878906 294.434C-0.00878906 294.434 162.33 306.26 203.342 375.52V358.627C203.342 358.627 189.672 295.864 25.623 279.947L74.1721 179.179H66.6351V179.175Z" fill="#03426A"/>
<path d="M68.0714 176.606C87.082 179.172 99.0957 185.118 99.0957 185.118C99.0957 185.118 79.6866 183.049 63.7495 184.901L68.0714 176.606Z" fill="#03426A"/>
<path d="M177.638 146.399H122.715V201.322H177.638V146.399Z" fill="#01A0C6"/>
<path d="M264.752 118.076H209.828V172.999H264.752V118.076Z" fill="#01A0C6"/>
<path d="M240.362 207.393H198.319V249.436H240.362V207.393Z" fill="#01A0C6"/>
<path d="M194.409 71.3218H152.365V113.365H194.409V71.3218Z" fill="#01A0C6"/>
<path d="M173.385 242.545H147.816V268.114H173.385V242.545Z" fill="#01A0C6"/>
<path d="M293.437 67.3524H262.993V97.7969H293.437V67.3524Z" fill="#01A0C6"/>
<circle cx="203.5" cy="145.537" r="145.537" fill="#E07700"/>
<path d="M203.614 74.422C244.131 74.422 268.442 102.645 272.074 145.398C272.633 151.266 268.721 155.178 262.853 155.178H161.419C164.214 178.091 180.421 192.622 204.172 192.622C214.511 192.622 224.292 188.989 231.836 183.121C234.351 181.165 237.145 180.047 239.94 180.047C242.455 180.047 244.969 181.165 247.205 183.121L251.117 187.033C255.308 190.666 255.588 196.254 251.676 199.887C239.381 211.343 222.336 216.653 203.055 216.653C163.096 216.653 134.873 186.195 134.873 145.677C134.873 103.483 162.817 74.422 203.614 74.422ZM204.452 98.7325C182.656 98.7325 167.567 110.469 162.258 130.588H246.367C240.219 111.028 226.806 98.7325 204.452 98.7325Z" fill="white"/>
<path d="M851.632 199.673C851.632 143.845 886.891 106.014 940.883 106.014C961.818 106.014 980.182 111.524 994.874 122.175C1001.12 126.583 1000.75 133.928 995.608 139.438L990.466 144.58C987.528 147.518 984.222 148.62 980.55 148.62C977.611 148.62 974.306 147.885 971.367 146.049C962.553 140.907 952.268 137.968 940.883 137.968C905.99 137.968 883.586 163.679 883.586 199.673C883.586 236.034 905.99 261.377 940.883 261.377C954.472 261.377 967.327 256.602 977.244 248.889C980.55 246.318 984.222 244.849 987.895 244.849C991.201 244.849 994.506 246.318 997.445 248.889L1002.95 254.031C1008.1 259.173 1008.83 266.152 1003.69 270.926C987.528 285.985 965.858 293.698 940.883 293.698C886.891 293.698 851.632 255.868 851.632 199.673Z" fill="#545454"/>
<path d="M641.789 199.673C641.789 143.478 677.048 106.014 731.407 106.014C785.765 106.014 821.025 143.845 821.025 199.673C821.025 255.868 785.765 293.698 731.407 293.698C677.048 293.698 641.789 255.868 641.789 199.673ZM673.743 199.673C673.743 236.034 696.147 261.377 731.407 261.377C766.666 261.377 789.071 236.034 789.071 199.673C789.071 163.679 766.666 137.968 731.407 137.968C696.147 137.968 673.743 163.679 673.743 199.673Z" fill="#545454"/>
<path d="M611.181 175.432C611.181 247.053 563.067 294.433 491.446 294.433H430.476C422.763 294.433 417.621 289.291 417.621 281.578V69.2858C417.621 61.5728 422.763 56.4308 430.476 56.4308H491.446C562.699 56.4308 611.181 103.811 611.181 175.432ZM577.391 174.697C577.391 122.175 543.968 88.752 491.813 88.752H449.575V262.111H491.813C543.968 262.111 577.391 227.586 577.391 174.697Z" fill="#545454"/>
</svg>
