<?xml version="1.0" encoding="utf-8"?>
<!-- Generator: Adobe Illustrator 26.0.3, SVG Export Plug-In . SVG Version: 6.00 Build 0)  -->
<svg version="1.1" id="Layer_1" xmlns="http://www.w3.org/2000/svg" xmlns:xlink="http://www.w3.org/1999/xlink" x="0px" y="0px"
	 viewBox="0 0 3212.8 1212.8" style="enable-background:new 0 0 3212.8 1212.8;" xml:space="preserve">
<style type="text/css">
	.st0{fill:#17541F;}
</style>
<path d="M1180.9,847.9v-20.6c-18,20-43.1,30.1-75.4,30.1c-22.4,0-42.8-5.8-61-17.5c-18.3-11.7-32.5-27.8-42.9-48.3
	c-10.3-20.5-15.5-43.3-15.5-68.4c0-25.1,5.2-48,15.5-68.5s24.6-36.6,42.9-48.3s38.6-17.5,61-17.5c32.3,0,57.5,10,75.4,30.1v-20.6
	h85.3V848L1180.9,847.9L1180.9,847.9z M1184.4,723.1c0-17.4-5.2-31.9-15.5-43.8c-10.3-11.8-23.9-17.7-40.6-17.7
	c-16.8,0-30.2,5.9-40.4,17.7c-10.2,11.8-15.3,26.4-15.3,43.8c0,17.4,5.1,31.9,15.3,43.8c10.2,11.8,23.6,17.7,40.4,17.7
	s30.3-5.9,40.6-17.7C1179.3,755.1,1184.4,740.5,1184.4,723.1z"/>
<path d="M1543.1,606.4c18.3,11.7,32.5,27.8,42.9,48.3c10.3,20.5,15.5,43.3,15.5,68.5c0,25.1-5.2,48-15.5,68.4
	c-10.3,20.5-24.6,36.6-42.9,48.3s-38.6,17.5-61,17.5c-32.3,0-57.5-10-75.4-30.1v165.6h-85.3V598.4h85.3V619
	c18-20,43.1-30.1,75.4-30.1C1504.5,588.9,1524.8,594.8,1543.1,606.4z M1514.8,723.1c0-17.4-5.1-31.9-15.3-43.8
	c-10.2-11.8-23.6-17.7-40.4-17.7s-30.2,5.9-40.4,17.7c-10.2,11.8-15.3,26.4-15.3,43.8c0,17.4,5.1,31.9,15.3,43.8
	c10.2,11.8,23.6,17.7,40.4,17.7s30.2-5.9,40.4-17.7C1509.7,755.1,1514.8,740.5,1514.8,723.1z"/>
<path d="M1838.9,763.5l53,49.4c-28.1,29.6-66.7,44.4-115.8,44.4c-28.1,0-53-5.8-74.5-17.5s-38.2-27.7-49.8-48
	c-11.7-20.3-17.7-43.2-18-68.7c0-24.8,5.9-47.5,17.7-68c11.8-20.5,28.1-36.7,48.7-48.5s43.5-17.7,68.7-17.7
	c24.8,0,47.6,6.1,68.2,18.2c20.6,12.1,37,29.5,49.1,52.3c12.1,22.7,18.2,49.1,18.2,79l-0.4,11.7h-181.8
	c3.6,11.4,10.5,20.7,20.9,28.1c10.3,7.3,21.3,11,33,11c14.4,0,26.3-2.2,35.7-6.5C1821.1,778.3,1830.2,771.9,1838.9,763.5z
	 M1722.2,694.4h92.9c-2.1-12.3-7.5-22.1-16.2-29.4c-8.7-7.3-18.7-11-30.1-11s-21.5,3.7-30.3,11S1724.3,682.1,1722.2,694.4z"/>
<path d="M2034.1,626.6c7.8-10.8,17.2-19,28.3-24.7s22-8.5,32.8-8.5c11.4,0,20,1.6,26,4.9l-10.8,72.7c-8.4-2.1-15.7-3.1-22-3.1
	c-17.1,0-30.4,4.3-39.9,12.8c-9.6,8.5-14.4,24.2-14.4,46.9v120.3h-85.3V598.4h85.3V626.6L2034.1,626.6z"/>
<path d="M2238.3,466.4v381.5H2153V466.4H2238.3z"/>
<path d="M2486.1,763.5l53,49.4c-28.1,29.6-66.7,44.4-115.8,44.4c-28.1,0-53-5.8-74.5-17.5s-38.2-27.7-49.8-48
	c-11.7-20.3-17.7-43.2-18-68.7c0-24.8,5.9-47.5,17.7-68s28.1-36.7,48.7-48.5c20.6-11.8,43.5-17.7,68.7-17.7
	c24.8,0,47.6,6.1,68.2,18.2c20.6,12.1,37,29.5,49.1,52.3c12.1,22.7,18.2,49.1,18.2,79l-0.4,11.7h-181.8
	c3.6,11.4,10.5,20.7,20.9,28.1c10.3,7.3,21.3,11,33,11c14.4,0,26.3-2.2,35.7-6.5C2468.4,778.3,2477.4,771.9,2486.1,763.5z
	 M2369.4,694.4h92.9c-2.1-12.3-7.5-22.1-16.2-29.4c-8.7-7.3-18.7-11-30.1-11s-21.5,3.7-30.3,11
	C2377,672.3,2371.5,682.1,2369.4,694.4z"/>
<path d="M2691.2,654.5c-9.9,0-17.1,1.1-21.5,3.4c-4.5,2.2-6.7,5.9-6.7,11s3.4,8.8,10.3,11.2c6.9,2.4,18,4.9,33.2,7.6
	c20,3,37,6.7,50.9,11.2s26,12.1,36.1,22.9c10.2,10.8,15.3,25.9,15.3,45.3c0,29.9-10.9,52.4-32.8,67.6
	c-21.8,15.1-50.3,22.7-85.3,22.7c-25.7,0-49.5-3.7-71.4-11c-21.8-7.3-37.4-14.7-46.7-22.2l33.7-60.6c10.2,9,23.4,15.8,39.7,20.4
	c16.3,4.6,31.3,7,45.1,7c19.7,0,29.6-5.2,29.6-15.7c0-5.4-3.3-9.4-9.9-11.9c-6.6-2.5-17.2-5.2-31.9-7.9c-18.9-3.3-34.9-7.2-48-11.7
	c-13.2-4.5-24.6-12.2-34.3-23.1c-9.7-10.9-14.6-26-14.6-45.1c0-27.2,9.7-48.5,29-63.7c19.3-15.3,46-22.9,80.1-22.9
	c23.3,0,44.4,3.6,63.3,10.8c18.9,7.2,34,14.5,45.3,22l-32.8,58.8c-10.8-7.5-23.2-13.7-37.3-18.6
	C2715.8,656.9,2702.9,654.5,2691.2,654.5z"/>
<path d="M2942.6,654.5c-9.9,0-17.1,1.1-21.5,3.4c-4.5,2.2-6.7,5.9-6.7,11s3.4,8.8,10.3,11.2c6.9,2.4,18,4.9,33.2,7.6
	c20,3,37,6.7,50.9,11.2s26,12.1,36.1,22.9c10.2,10.8,15.3,25.9,15.3,45.3c0,29.9-10.9,52.4-32.8,67.6
	c-21.8,15.1-50.3,22.7-85.3,22.7c-25.7,0-49.5-3.7-71.4-11c-21.8-7.3-37.4-14.7-46.7-22.2l33.7-60.6c10.2,9,23.4,15.8,39.7,20.4
	c16.3,4.6,31.3,7,45.1,7c19.8,0,29.6-5.2,29.6-15.7c0-5.4-3.3-9.4-9.9-11.9c-6.6-2.5-17.2-5.2-31.9-7.9c-18.9-3.3-34.9-7.2-48-11.7
	c-13.2-4.5-24.6-12.2-34.3-23.1s-14.6-26-14.6-45.1c0-27.2,9.7-48.5,29-63.7c19.3-15.3,46-22.9,80.1-22.9c23.3,0,44.4,3.6,63.3,10.8
	c18.9,7.2,34,14.5,45.3,22l-32.8,58.8c-10.8-7.5-23.2-13.7-37.3-18.6C2967.1,656.9,2954.2,654.5,2942.6,654.5z"/>
<g>
	<path d="M2633.3,932.2h60.2v17.3h-60.2V932.2z"/>
	<path d="M2754.5,902.6c4.9-2,10.2-3.1,16-3.1c10.9,0,19.5,3.4,25.9,10.2s9.6,16.7,9.6,29.6v57.3h-19.6V944c0-9.3-1.7-16.2-5.1-20.7
		c-3.4-4.5-9.1-6.7-17-6.7c-6.5,0-11.8,2.4-16.1,7.1c-4.3,4.8-6.4,11.5-6.4,20.2v52.6h-19.6v-94.6h19.6v9.5
		C2745.5,907.6,2749.7,904.6,2754.5,902.6z"/>
	<path d="M2915.6,1041.4c-8.6,6.8-19.4,10.2-32.3,10.2c-7.9,0-15.2-1.4-21.9-4.1s-12.1-6.8-16.3-12.2c-4.2-5.4-6.6-11.9-7.1-19.6
		h19.6c0.7,6.1,3.5,10.8,8.4,13.9c4.9,3.2,10.7,4.8,17.4,4.8c7,0,13.1-2,18.2-6c5.1-4,7.7-10.3,7.7-18.9v-24.7
		c-3.6,3.4-8,6.2-13.3,8.2c-5.2,2.1-10.7,3.1-16.3,3.1c-8.7,0-16.6-2.1-23.7-6.4c-7.1-4.3-12.6-10-16.7-17.3c-4-7.3-6-15.5-6-24.6
		s2-17.3,6-24.7s9.6-13.2,16.7-17.4c7.1-4.3,15-6.4,23.7-6.4c5.7,0,11.1,1,16.3,3.1s9.6,4.8,13.3,8.2v-8.8h19.4v107.8
		C2928.5,1024.1,2924.2,1034.6,2915.6,1041.4z M2907.5,963.9c2.6-4.7,3.8-10,3.8-15.9s-1.3-11.2-3.8-16c-2.6-4.8-6.1-8.5-10.5-11.1
		c-4.5-2.7-9.5-4-15.1-4c-5.8,0-10.9,1.4-15.4,4.3c-4.5,2.8-7.9,6.6-10.3,11.4c-2.4,4.8-3.6,9.9-3.6,15.5c0,5.4,1.2,10.5,3.6,15.3
		c2.4,4.8,5.8,8.6,10.3,11.5s9.6,4.3,15.4,4.3c5.6,0,10.6-1.4,15.1-4.1C2901.4,972.3,2904.9,968.6,2907.5,963.9z"/>
	<path d="M2968.8,996.6h-21.6l37.9-48l-36.4-46.6h22.6l25.7,33.3l25.8-33.3h21.6l-36.2,45.9l37.9,48.6h-22.6l-27.4-35L2968.8,996.6z
		"/>
</g>
<path d="M961.1,527.4c-11.5-18.9-27.4-33.7-47.6-44.7c-20.2-10.9-43-16.4-68.5-16.4h-90.6c-8.6,39.6-21.3,77.2-38,112.4
	c-10,21-21.3,41-33.9,59.9v209.2h89.8v-135H845c25.4,0,48.3-5.5,68.5-16.4s36.1-25.8,47.6-44.7s17.3-39.5,17.3-61.9
	C978.4,567.1,972.7,546.3,961.1,527.4z M872.3,624.8c-9.4,9-21.8,13.5-37,13.5l-62.8,0.4v-93.4l62.8-0.4c15.3,0,27.6,4.5,37,13.5
	s14.1,20,14.1,33.2C886.4,604.8,881.7,615.9,872.3,624.8z"/>
<path class="st0" d="M290,906.9c-3.5-16.5-10.4-49.6-11.3-49.6c-147.1-88-129.7-240.3-81-327.4c10.4,109.7,204.6,185.4,91.4,319.5
	c-0.9,1.7,5.2,22.6,10.4,41.8c22.6-38.3,56.6-84.4,54.8-88.8C215,462.9,650.3,436.8,740.8,226.1c40.9,203.7-20.9,518.9-370.8,599
	c-1.7,0.9-63.5,109.7-66.2,110.6c0-1.7-26.1-0.9-22.6-9.6C283.1,920.8,286.5,913.9,290,906.9L290,906.9z M285.7,825.1
	c44.4-51.4-7.8-139.3-39.2-168C299.6,748.4,296.1,801.5,285.7,825.1L285.7,825.1z"/>
</svg>
