
		<svg xmlns="http://www.w3.org/2000/svg" xmlns:xlink="http://www.w3.org/1999/xlink" version="1.1" width="3212.7659574468084" height="1212.7659574468084">
			
			<g transform="scale(10.638297872340425) translate(10, 10)">
				<defs id="SvgjsDefs1018"/><g id="SvgjsG1019" featureKey="root" fill="#000"/><g id="SvgjsG1020" featureKey="symbol1" fill="#000" transform="matrix(0.10341565310955048,0,0,0.10341565310955048,1.2287664639255311,8.34534955983785)"><defs/><g><path d="M231 798c-4,-19 -12,-57 -13,-57 -169,-101 -149,-276 -93,-376 12,126 235,213 105,367 -1,2 6,26 12,48 26,-44 65,-97 63,-102 -160,-390 340,-420 444,-662 47,234 -24,596 -426,688 -2,1 -73,126 -76,127 0,-2 -30,-1 -26,-11 2,-6 6,-14 10,-22zm99 -173c-63,-149 122,-313 214,-354 -188,168 -220,293 -214,354zm-104 79c51,-59 -9,-160 -45,-193 61,105 57,166 45,193z" style="fill: #17541f;"/></g></g><g id="SvgjsG1021" featureKey="text1" fill="#000" transform="matrix(3.34075665473938,0,0,3.34075665473938,98.19599170908818,2.9576938247155375)"><path d="M6.5 8.62 q0.02 0.48 0.02 1.09 t-0.02 1.07 q0 0.54 -0.19 1.07 t-0.57 0.95 t-0.95 0.66 t-1.31 0.24 l-1.02 0 l0 5.22 q0 0.28 0.08 0.41 t0.16 0.15 q0.12 0.06 0.26 0 l0 0.52 l-2.42 0 l0 -0.52 q0.16 0.06 0.24 0 q0.1 -0.02 0.2 -0.15 t0.1 -0.41 l0 -12.14 q0 -0.3 -0.1 -0.43 t-0.2 -0.17 q-0.08 -0.04 -0.24 0 l0 -0.48 l2.94 0 q0.74 0 1.31 0.24 t0.95 0.66 t0.57 0.94 t0.19 1.08 z M5.08 8.18 q0 -0.52 -0.17 -0.9 t-0.4 -0.6 t-0.48 -0.35 t-0.43 -0.13 l-1.14 0 l0 6.96 l1.14 0 q0.18 0 0.43 -0.1 t0.48 -0.35 t0.4 -0.61 t0.17 -0.9 l0 -3.02 z M14.58 19.14 q0 0.16 -0.08 0.33 t-0.23 0.32 t-0.38 0.27 t-0.53 0.12 q-0.48 0 -0.86 -0.22 t-0.52 -0.58 q-0.12 -0.2 -0.18 -0.46 q-0.26 0.54 -0.79 0.9 t-1.17 0.36 q-0.8 0 -1.4 -0.58 q-0.34 -0.3 -0.56 -0.78 t-0.26 -1.1 q-0.02 -0.06 -0.02 -0.24 l0 -0.02 q0.02 -0.34 0.12 -0.71 t0.31 -0.74 t0.5 -0.7 t0.63 -0.57 q0.08 -0.04 0.13 -0.09 t0.15 -0.11 l0.06 -0.03 l0.06 -0.03 q0.36 -0.22 0.63 -0.4 t0.49 -0.34 q0.12 -0.08 0.24 -0.18 t0.26 -0.2 q0.18 -0.12 0.34 -0.28 t0.24 -0.38 q0.12 -0.2 0.12 -0.48 t-0.06 -0.5 q-0.08 -0.44 -0.41 -0.76 t-0.73 -0.42 q-0.18 -0.06 -0.34 -0.06 q-0.56 0 -0.96 0.2 q-0.26 0.12 -0.38 0.27 t-0.13 0.28 t0.05 0.21 t0.16 0.12 q0.04 0.02 0.05 0.02 t0.05 0.02 q0.26 0.1 0.43 0.35 t0.17 0.55 q0 0.38 -0.27 0.65 t-0.65 0.27 q-0.4 0 -0.68 -0.27 t-0.28 -0.65 q0 -0.34 0.09 -0.71 t0.27 -0.67 q0.38 -0.56 0.91 -0.81 t1.17 -0.25 q0.48 0 0.95 0.18 t0.84 0.51 t0.62 0.79 t0.25 1.06 l0 5.88 q0 0.36 0.01 0.47 t0.01 0.15 l0 0 q0 0.26 0.16 0.42 t0.38 0.16 q0.26 0 0.42 -0.15 t0.18 -0.39 l0.42 0 z M11.440000000000001 18.64 q0.16 -0.28 0.19 -0.6 t0.03 -0.6 l0 -3.7 q-0.08 0.08 -0.17 0.15 t-0.19 0.17 q-0.58 0.42 -0.99 0.77 t-0.69 0.72 t-0.44 0.79 t-0.2 0.96 l0 0.3 q0.02 0.76 0.41 1.19 t1.11 0.43 q0.32 0 0.58 -0.16 q0.26 -0.18 0.36 -0.42 z M18.32 10.08 q1.14 0.02 1.82 0.69 t0.68 2.13 l0 4.48 q0 1.46 -0.68 2.12 t-1.82 0.7 l-0.06 0 q-0.34 0 -0.62 -0.08 l-0.02 0 q-0.02 0 -0.02 -0.02 q-0.46 -0.16 -0.8 -0.44 l-0.19 -0.19 t-0.15 -0.21 l0 3.32 q0 0.28 0.08 0.41 t0.16 0.17 q0.12 0.06 0.26 0 l0 0.5 l-2.42 0 l0 -0.5 q0.16 0.06 0.24 0 q0.1 -0.04 0.19 -0.17 t0.09 -0.41 l0 -11.28 q0 -0.28 -0.09 -0.41 t-0.19 -0.17 q-0.08 -0.04 -0.24 0 l0 -0.48 l1.92 0 l0 0.78 q0.14 -0.22 0.34 -0.4 q0.34 -0.3 0.8 -0.44 q0 -0.02 0.02 -0.02 l0.02 0 q0.32 -0.08 0.62 -0.08 l0.06 0 z M19.32 12.46 l0 -0.02 q-0.02 -1.02 -0.25 -1.44 t-0.75 -0.46 q-0.36 -0.02 -0.68 0.09 t-0.56 0.37 t-0.4 0.7 t-0.22 1.04 l0 4.8 q0.06 0.62 0.22 1.05 t0.4 0.68 t0.56 0.37 t0.68 0.1 q0.52 -0.04 0.75 -0.46 t0.25 -1.44 l0 -0.02 l0 -5.36 z M24.380000000000003 10.08 q0.46 0 0.94 0.16 t0.86 0.5 t0.61 0.86 t0.23 1.24 l0 2.02 l0 0.06 l0 0.46 l-3.98 0 l0 2.06 q0 1.24 0.43 1.77 t1.07 0.51 q0.38 -0.02 0.75 -0.13 t0.64 -0.37 t0.45 -0.74 t0.18 -1.26 l0.46 0 l0 0.28 q0 0.54 -0.12 1.03 t-0.42 0.85 t-0.77 0.57 t-1.15 0.23 q-0.48 0 -0.98 -0.18 t-0.9 -0.54 t-0.66 -0.85 t-0.26 -1.11 l0 -0.47 t-0.01 -0.77 t-0.01 -0.95 t-0.01 -0.99 t-0.01 -0.87 l0 -0.59 q0 -0.72 0.25 -1.25 t0.62 -0.86 t0.84 -0.5 t0.95 -0.17 z M25.68 14.86 l0 -1.58 q0 -0.76 -0.1 -1.27 t-0.27 -0.82 t-0.41 -0.43 t-0.54 -0.12 q-0.64 0 -0.97 0.56 t-0.33 2.08 l0 1.58 l2.62 0 z M33.54 11.66 q0 0.04 0.02 0.16 t0 0.2 q-0.02 0.42 -0.29 0.69 t-0.65 0.27 q-0.4 0 -0.67 -0.28 t-0.27 -0.68 q0 -0.5 0.38 -0.76 q0.04 -0.02 0.05 -0.03 l0.03 -0.03 q0.14 -0.1 0.18 -0.29 t-0.24 -0.33 q-0.18 -0.1 -0.36 -0.1 q-0.6 -0.04 -1.06 0.36 t-0.62 1.4 l0 6.68 q0 0.28 0.08 0.41 t0.16 0.15 q0.12 0.06 0.26 0 l0 0.52 l-2.42 0 l0 -0.52 q0.16 0.06 0.24 0 q0.1 -0.02 0.2 -0.15 t0.1 -0.41 l0 -7.62 q0 -0.28 -0.1 -0.41 t-0.2 -0.17 q-0.08 -0.04 -0.24 0 l0 -0.5 l1.92 0 l0 0.82 q0.14 -0.22 0.28 -0.41 t0.33 -0.32 t0.44 -0.21 t0.63 -0.08 q0.58 0 1.08 0.42 t0.74 1.22 z M36.24 18.92 q0 0.28 0.09 0.41 t0.17 0.15 q0.1 0.06 0.26 0 l0 0.52 l-2.42 0 l0 -0.52 q0.16 0.06 0.28 0 q0.06 -0.02 0.16 -0.15 t0.1 -0.41 l0 -12.12 q0 -0.3 -0.1 -0.43 t-0.16 -0.17 q-0.12 -0.06 -0.28 0 l0 -0.48 l1.9 0 l0 1.08 l0 12.12 z M40.580000000000005 10.08 q0.46 0 0.94 0.16 t0.86 0.5 t0.61 0.86 t0.23 1.24 l0 2.02 l0 0.06 l0 0.46 l-3.98 0 l0 2.06 q0 1.24 0.43 1.77 t1.07 0.51 q0.38 -0.02 0.75 -0.13 t0.64 -0.37 t0.45 -0.74 t0.18 -1.26 l0.46 0 l0 0.28 q0 0.54 -0.12 1.03 t-0.42 0.85 t-0.77 0.57 t-1.15 0.23 q-0.48 0 -0.98 -0.18 t-0.9 -0.54 t-0.66 -0.85 t-0.26 -1.11 l0 -0.47 t-0.01 -0.77 t-0.01 -0.95 t-0.01 -0.99 t-0.01 -0.87 l0 -0.59 q0 -0.72 0.25 -1.25 t0.62 -0.86 t0.84 -0.5 t0.95 -0.17 z M41.88 14.86 l0 -1.58 q0 -0.76 -0.1 -1.27 t-0.27 -0.82 t-0.41 -0.43 t-0.54 -0.12 q-0.64 0 -0.97 0.56 t-0.33 2.08 l0 1.58 l2.62 0 z M47.88 19.88 q-0.02 0.02 -0.03 0.02 t-0.03 0.02 l-0.02 0.02 q-0.04 0.02 -0.09 0.04 t-0.09 0.04 q-0.42 0.18 -0.98 0.18 q-0.32 0 -0.62 -0.15 t-0.52 -0.25 t-0.37 -0.09 t-0.15 0.29 l-0.38 0 l0 -2.4 l0.48 0 q-0.04 0.64 0.14 1.1 q0.12 0.4 0.47 0.75 t1.05 0.35 q0.46 0 0.76 -0.16 q0.52 -0.26 0.71 -0.62 t0.15 -0.75 t-0.29 -0.77 t-0.61 -0.7 q-0.24 -0.18 -0.5 -0.38 t-0.52 -0.42 q-0.7 -0.56 -1.11 -1.01 t-0.63 -0.84 t-0.3 -0.74 t-0.08 -0.75 q0 -0.24 0.03 -0.44 t0.07 -0.36 q0.06 -0.34 0.2 -0.66 t0.4 -0.57 t0.64 -0.41 t0.92 -0.16 q0.3 0 0.6 0.13 t0.54 0.24 t0.38 0.1 t0.14 -0.31 l0.38 0 l0 2.48 l-0.52 0 q0.02 -0.6 -0.14 -1.08 q-0.14 -0.42 -0.49 -0.76 t-1.03 -0.34 q-0.54 0 -0.88 0.24 q-0.18 0.14 -0.31 0.41 t-0.15 0.59 t0.1 0.69 t0.48 0.69 q0.04 0.06 0.11 0.12 t0.15 0.1 q0.06 0.04 0.1 0.08 l0.08 0.08 q0.22 0.18 0.45 0.36 t0.47 0.36 q0.56 0.48 0.93 0.87 t0.62 0.73 t0.37 0.64 t0.14 0.58 q0.2 0.92 -0.07 1.55 t-0.69 0.99 l-0.02 0 q0 0.04 -0.04 0.04 q-0.04 0.04 -0.08 0.06 l-0.12 0.08 t-0.12 0.06 l0 0.02 q-0.02 0 -0.04 0.01 t-0.04 0.01 z M53.82 19.88 q-0.02 0.02 -0.03 0.02 t-0.03 0.02 l-0.02 0.02 q-0.04 0.02 -0.09 0.04 t-0.09 0.04 q-0.42 0.18 -0.98 0.18 q-0.32 0 -0.62 -0.15 t-0.52 -0.25 t-0.37 -0.09 t-0.15 0.29 l-0.38 0 l0 -2.4 l0.48 0 q-0.04 0.64 0.14 1.1 q0.12 0.4 0.47 0.75 t1.05 0.35 q0.46 0 0.76 -0.16 q0.52 -0.26 0.71 -0.62 t0.15 -0.75 t-0.29 -0.77 t-0.61 -0.7 q-0.24 -0.18 -0.5 -0.38 t-0.52 -0.42 q-0.7 -0.56 -1.11 -1.01 t-0.63 -0.84 t-0.3 -0.74 t-0.08 -0.75 q0 -0.24 0.03 -0.44 t0.07 -0.36 q0.06 -0.34 0.2 -0.66 t0.4 -0.57 t0.64 -0.41 t0.92 -0.16 q0.3 0 0.6 0.13 t0.54 0.24 t0.38 0.1 t0.14 -0.31 l0.38 0 l0 2.48 l-0.52 0 q0.02 -0.6 -0.14 -1.08 q-0.14 -0.42 -0.49 -0.76 t-1.03 -0.34 q-0.54 0 -0.88 0.24 q-0.18 0.14 -0.31 0.41 t-0.15 0.59 t0.1 0.69 t0.48 0.69 q0.04 0.06 0.11 0.12 t0.15 0.1 q0.06 0.04 0.1 0.08 l0.08 0.08 q0.22 0.18 0.45 0.36 t0.47 0.36 q0.56 0.48 0.93 0.87 t0.62 0.73 t0.37 0.64 t0.14 0.58 q0.2 0.92 -0.07 1.55 t-0.69 0.99 l-0.02 0 q0 0.04 -0.04 0.04 q-0.04 0.04 -0.08 0.06 l-0.12 0.08 t-0.12 0.06 l0 0.02 q-0.02 0 -0.04 0.01 t-0.04 0.01 z"/></g>
			</g>
		</svg>
	