<?xml version="1.0" encoding="UTF-8"?>
<svg id="svg3923" xmlns="http://www.w3.org/2000/svg" xmlns:svg="http://www.w3.org/2000/svg" xmlns:sodipodi="http://sodipodi.sourceforge.net/DTD/sodipodi-0.dtd" xmlns:rdf="http://www.w3.org/1999/02/22-rdf-syntax-ns#" xmlns:inkscape="http://www.inkscape.org/namespaces/inkscape" xmlns:dc="http://purl.org/dc/elements/1.1/" xmlns:cc="http://creativecommons.org/ns#" version="1.1" viewBox="0 0 900 900">
  <!-- Generator: Adobe Illustrator 30.2.1, SVG Export Plug-In . SVG Version: 2.1.1 Build 1)  -->
  <defs>
    <style>
      .st0 {
        fill: #005616;
      }
    </style>
  </defs>
  <sodipodi:namedview id="namedview3925" bordercolor="#666666" borderopacity="1" gridtolerance="10" guidetolerance="10" inkscape:current-layer="g3921" inkscape:cx="635.07139" inkscape:cy="606.383" inkscape:pageopacity="0" inkscape:pageshadow="2" inkscape:window-height="2096" inkscape:window-maximized="1" inkscape:window-width="3840" inkscape:window-x="0" inkscape:window-y="27" inkscape:zoom="1.1360927" objecttolerance="10" pagecolor="#ffffff" showgrid="false"/>
  <g>
    <path class="st0" d="M296.7,867.8c-6.5-18.9-19.3-57.1-20.4-56.9-186.2-82.9-170.2-214.3-125.2-324.1,28,128,250.7,138.8,136.4,313.3-.8,2.1,9.4,25.9,18.2,47.8,21.2-48.4,54.7-107.7,52-112.6C144.7,354.6,654.7,261.6,731.4,0c77.4,234.6,49.5,615.3-352,760-1.9,1.3-59.3,138.5-62.4,140-.2-2-31,2.7-28.1-8.1,1.5-6.6,4.5-15.1,7.7-23.9h0v-.2ZM280,771.9c45-67-11.9-112.6-53.1-141.9,75.7,100.2,62,112.6,53.1,141.9h0Z"/>
    <path class="st0" d="M296.7,867.8c-6.5-18.9-19.3-57.1-20.4-56.9-186.2-82.9-170.2-214.3-125.2-324.1,28,128,250.7,138.8,136.4,313.3-.8,2.1,9.4,25.9,18.2,47.8,21.2-48.4,54.7-107.7,52-112.6C144.7,354.6,654.7,261.6,731.4,0c77.4,234.6,49.5,615.3-352,760-1.9,1.3-59.3,138.5-62.4,140-.2-2-31,2.7-28.1-8.1,1.5-6.6,4.5-15.1,7.7-23.9h0v-.2ZM280,771.9c45-67-11.9-112.6-53.1-141.9,75.7,100.2,62,112.6,53.1,141.9h0Z"/>
  </g>
</svg>