<?xml version="1.0" encoding="UTF-8"?>
<svg id="Layer_1" xmlns="http://www.w3.org/2000/svg" version="1.1" viewBox="0 0 3212.8 1212.8">
  <!-- Generator: Adobe Illustrator 30.2.1, SVG Export Plug-In . SVG Version: 2.1.1 Build 1)  -->
  <defs>
    <style>
      .st0 {
        fill: #005616;
      }
    </style>
  </defs>
  <g id="sxJ1Ue.tif">
    <g>
      <path d="M1831.4,1044.5l88.8-.2c26.2,0,46.3-14.1,52.4-40.2l20.3-87.5c-8.3,10.8-14.8,20.7-24.5,29.4-21.4,19.6-50.3,28.1-78.8,21.9-31.3-6.8-44.8-35.4-45.7-65.5-1.4-48.6,19.8-103.7,62.2-130.2,20.5-12.8,45.1-15.6,68.3-10.5,27.2,8,36,28.9,41.1,55.8l12.3-53.3c2.8-.4,5.6-.4,8.8,0l-54,236.3c-3.6,15.9-11.7,34.5-26.3,42.5-12.1,6.6-25.3,10.3-39.4,10.3h-86.9c0,0,1.5-8.7,1.5-8.7v-.2ZM1889.5,958.4c28.8,7.6,57.1-1.4,77.3-21.9,16.6-16.8,27.5-36.6,34.4-59.3,7.1-23,9.7-46.7,4.5-70.1-4.7-21.4-20.3-35.7-41.8-38.4s-45.6,2.8-63.5,18.2c-30.3,26-47.2,67-47.9,106.5-.5,27,7.1,57.2,37,65.1h0Z"/>
      <path d="M1721.7,770.1c-50.6-12.2-100.8,33.5-111,77.3l-27.6,117.7c-3.1.3-5.8.2-8.7-.2l46.3-200.7c3-.5,5.4-.5,8.8-.3l-10.6,47.7c24.8-34.8,58.8-58.6,102.7-50.9,35.6,8,39.4,43.3,32.4,73.6l-30,130.8-8.9.2,29.8-129.9c5.4-23.4,7-58.1-23.1-65.3h-.1Z"/>
      <path d="M2272.4,964.9c-3.3.5-6,.5-9.4.4l-44.8-103.8-92.2,103.3c-3.8.8-7.4.8-11.9,0l86.5-96.6c4.6-5.1,9.5-9.2,14.8-13.1-5.5-6.4-9.7-13.5-13.4-21.2l-33.6-70c3.5-.5,6.4-.5,9.6,0l41.1,85.4,79.6-85.1c3.3-1.3,7.8-1.1,11.9,0l-67.5,71.8c-6.6,7-13.6,12.7-21.1,19,5.9,5.8,8.4,13.1,11.6,20.5l38.7,89.3v.2Z"/>
      <polygon points="181.5 847.4 1483.1 847.4 1481.5 856.2 179.9 856.2 181.5 847.4"/>
    </g>
  </g>
  <g>
    <path d="M876.6,606.7l-.8,147.3h-91.5v-366.1h91.4c.4,12.1-.3,23.2,1.4,36.2,24.7-36.5,66.6-53.5,108.1-41,17.6,5.3,31.7,17.5,42.5,32.1,36.8,49.7,37.6,143.3,3.9,194.9-10.8,15.4-24.1,28.8-41.7,35.7-42.3,16.8-86.7,1.2-113.3-39.1ZM947.6,573.5c22.5-27.9,22.5-88.5-.4-116-14.1-17-38.9-17.2-53.4-.4-23.8,27.6-23.2,91.3.5,117.8,14.5,16.3,39.2,16,53.2-1.4h.1Z"/>
    <path d="M351.8,508l-77.9.8v134.9h-93.9v-352.7l170.8.5c33.5.1,63,14.6,84.9,38.6,32.9,40.2,33.1,98.1.6,138.6-21.5,24.4-50.9,39-84.5,39.4h0ZM365.5,399.8c0-22.2-16.2-37.4-37.1-37.4l-54.6.2v74.4l57.3-.2c19.8,0,34.2-16.9,34.4-36.9h0Z"/>
    <polygon points="1607.9 643.7 1607.6 577.6 1687.2 577.4 1687.3 335.1 1607.8 334.9 1607.8 268.9 1778.9 268.9 1778.9 577.3 1858.3 577.5 1858.5 643.6 1607.9 643.7"/>
    <path d="M2039.6,575.8c9.7-9.2,15-19.4,18.9-32.4l73.2,14.2c-11.2,48.4-49.7,84.7-98.7,92.7-63.3,10.3-127-15.2-148.3-78.8-11.7-35-11.4-73.4.6-107.9,18.9-54.1,68.8-86.1,125.3-84.6,81.8,2.1,121.3,70,118.9,145.6h-166.2c-.7,13.4,3.2,26.7,10.4,38.4,14.1,22.8,43.8,28.8,65.8,12.8h0ZM2047.7,478.2c-2.6-11.6-7.4-19.3-14.9-26.3-13.7-8.9-32.2-10.2-46.4-1.2-9.9,6.2-15.6,16.2-19.3,27.5h80.6Z"/>
    <path d="M1257.1,575.8c9.7-9.1,14.9-19.4,18.9-32.4l73.2,14.2c-11.1,48.4-49.7,84.7-98.7,92.7-63.4,10.3-127.1-15.2-148.4-79.1-11.5-34.5-11.3-72.1.2-106.2,18.5-54.8,68.7-87.5,125.8-86,81.9,2.1,121.4,69.9,118.9,145.6h-166.4c-.2,13.6,3.4,26.8,10.6,38.4,14.1,22.8,43.8,28.9,65.8,12.8h0ZM1265.3,478.3c-2.6-10.1-6.7-19.8-15.2-26.1-13.2-9.7-32.5-10.1-46.3-1.4-10,6.3-15.4,16.1-19.1,27.4h80.6Z"/>
    <path d="M630.2,589.2c-7.6,14.6-13.4,27.5-24.8,38-15.3,14.2-34.9,20.6-55.9,20.8-43.2.2-80.9-24.7-78.7-70.3,1-21.5,10.4-39.8,28.3-52.6,32.6-23.3,59.7-24,93.9-43.4,8.7-4.9,19.5-16.4,13.3-23.8s-5.4-3.2-8.6-4h-103v-66.1c-.1,0,117.2,0,117.2,0,15.7.6,30.1,2.3,44.6,7.7,25.3,9.4,42.4,31.6,42.6,59.1l.8,96.9c0,14.4,11.8,24.6,25.3,25.6l10.8.7v65.6h-32c-14,0-27.7-3.2-39.9-9.2-18.1-8.8-28.8-23.7-33.8-45.1h0ZM566.7,582c7.3,6.3,17.3,6.9,26.5,2.9,19.4-8.4,17.7-41,17.2-58.8-3.9,4.6-7.9,9.6-13.4,12l-22.6,9.9c-6.2,2.7-11.3,8.6-12.6,13.9s-1.1,14.8,5,20h-.1Z"/>
    <path d="M2254.8,646.2c-35.8-9.5-73.3-35.9-84.4-73.7l71.2-29.1c12.6,23.6,33.8,45,61.2,42.6,4.6-.4,10-3.3,12-6.4,8.3-13.4-4.6-26-17.3-32.8l-50.6-27c-34.4-18.3-61.7-54.2-44.5-93.5,12.7-28.9,51.5-37.4,80.5-38.5h106.1v66.1h-94.8c-2.7.4-6.6,2.5-7.5,4.5s.7,7.5,2.9,8.8c33.8,19.9,94.5,41,111,77,11.1,24.2,7.2,53.5-9.8,73.9-31.6,38.2-92.1,39.5-135.9,27.9v.2Z"/>
    <path d="M1586.5,468.8l-73.3.2c-20.8,0-32.2,11.6-33.8,32.3v142.4h-91.7v-255.7h91.6l1.1,63,12.7-26.9c15.3-32.6,60.9-39,93.5-35.9v80.7h0Z"/>
    <path d="M2564.9,586.3c-27.8,1.3-47.7-19.7-60.4-42.9l-71.1,29.2c11.5,38.4,49.4,64.6,85.9,74h.1c11.3,2.8,23.5,4.8,36,5.6,3.4-8.4,7.3-16.7,11.6-25,19.8-38.4,47.4-73.2,78.9-105.7-25.2-22.6-67-39.3-93.1-54.1-2.3-1.3-3.9-7.2-2.9-9.3,1-2.1,4.8-3.7,7.9-4.2h94.4v-66.1h-104.2c-28.9.8-68.3,8.8-81.8,37.2-8.9,18.7-7.3,41.2,3.7,58.7,10,15.9,23.8,27.6,40.3,36.3l49,26c12.3,6.5,26.4,18.2,19.2,32.6-2.2,4.4-7.9,6.9-13.5,7.7Z"/>
  </g>
  <g>
    <path class="st0" d="M2559.1,1064.5c-6.5-19-19.4-57.3-20.5-57.1-186.9-83.2-170.9-215.2-125.7-325.4,28.1,128.5,251.7,139.4,136.9,314.6-.8,2.1,9.4,26,18.3,48,21.3-48.6,54.9-108.1,52.2-113.1-213.8-382.3,298.2-475.7,375.2-738.3,77.7,235.5,49.7,617.8-353.4,763-1.9,1.3-59.5,139.1-62.6,140.6-.2-2-31.1,2.7-28.2-8.1,1.5-6.6,4.5-15.2,7.7-24h0v-.2ZM2542.3,968.2c45.2-67.3-11.9-113.1-53.3-142.5,76,100.6,62.2,113.1,53.3,142.5h0Z"/>
    <path class="st0" d="M2559.1,1064.5c-6.5-19-19.4-57.3-20.5-57.1-186.9-83.2-170.9-215.2-125.7-325.4,28.1,128.5,251.7,139.4,136.9,314.6-.8,2.1,9.4,26,18.3,48,21.3-48.6,54.9-108.1,52.2-113.1-213.8-382.3,298.2-475.7,375.2-738.3,77.7,235.5,49.7,617.8-353.4,763-1.9,1.3-59.5,139.1-62.6,140.6-.2-2-31.1,2.7-28.2-8.1,1.5-6.6,4.5-15.2,7.7-24h0v-.2ZM2542.3,968.2c45.2-67.3-11.9-113.1-53.3-142.5,76,100.6,62.2,113.1,53.3,142.5h0Z"/>
  </g>
</svg>