<?xml version="1.0" encoding="UTF-8" standalone="no"?>
<svg
   version="1.1"
   width="900"
   height="900"
   id="svg3923"
   sodipodi:docname="square.svg"
   inkscape:export-filename="/tmp/test.png"
   inkscape:export-xdpi="96"
   inkscape:export-ydpi="96"
   inkscape:version="1.3.1 (9b9bdc1480, 2023-11-25, custom)"
   xmlns:inkscape="http://www.inkscape.org/namespaces/inkscape"
   xmlns:sodipodi="http://sodipodi.sourceforge.net/DTD/sodipodi-0.dtd"
   xmlns="http://www.w3.org/2000/svg"
   xmlns:svg="http://www.w3.org/2000/svg"
   xmlns:rdf="http://www.w3.org/1999/02/22-rdf-syntax-ns#"
   xmlns:cc="http://creativecommons.org/ns#"
   xmlns:dc="http://purl.org/dc/elements/1.1/">
  <metadata
     id="metadata3929">
    <rdf:RDF>
      <cc:Work
         rdf:about="">
        <dc:format>image/svg+xml</dc:format>
        <dc:type
           rdf:resource="http://purl.org/dc/dcmitype/StillImage" />
        <dc:title />
      </cc:Work>
    </rdf:RDF>
  </metadata>
  <defs
     id="defs3927" />
  <sodipodi:namedview
     pagecolor="#ffffff"
     bordercolor="#666666"
     borderopacity="1"
     objecttolerance="10"
     gridtolerance="10"
     guidetolerance="10"
     inkscape:pageopacity="0"
     inkscape:pageshadow="2"
     inkscape:window-width="1920"
     inkscape:window-height="1016"
     id="namedview3925"
     showgrid="false"
     inkscape:zoom="0.56804635"
     inkscape:cx="661.91782"
     inkscape:cy="600.30313"
     inkscape:window-x="0"
     inkscape:window-y="0"
     inkscape:window-maximized="1"
     inkscape:current-layer="g3921"
     inkscape:showpageshadow="2"
     inkscape:pagecheckerboard="0"
     inkscape:deskcolor="#d1d1d1" />
  <g
     transform="matrix(10.638298,0,0,10.638298,106.38298,-206.38301)"
     id="g3921">
    <defs
       id="SvgjsDefs1018" />
    <g
       id="SvgjsG1019"
       featureKey="root"
       style="fill:#ffffff" />
    <path
       fill="#4ad1cb"
       d="m 10.157783,62.412668 c 2.913262,1.169379 4.178374,4.841949 2.829641,8.200294 L 6.1776732,87.562486 C 5.4952711,89.26189 4.0952295,90.594437 2.2744404,91.28364 l -11.1229985,4.199957 2.4749245,-3.869512 A 66.357649,66.357649 0 0 0 3.4775101,64.794529 c 1.0735338,-2.665096 3.95853,-3.475684 6.6802729,-2.381861 m 8.412045,-1.368964 -0.462585,-4.154097 c 5.838662,-1.383743 10.342082,-3.102086 13.492721,-5.149461 3.147942,-2.047376 5.034819,-4.096102 5.648492,-6.143478 a 71.482834,71.482834 0 0 1 2.306333,-6.463127 35.876289,35.876289 0 0 1 3.227517,-6.185288 q 1.845067,-2.791876 8.534782,-5.227688 c 4.454863,-1.623874 21.680877,-0.99677 21.680877,-0.99677 q -10.378498,0.798477 -15.568421,4.031361 c -3.460848,2.155275 -5.53385,4.6302 -6.231146,7.423424 -0.687852,2.793226 -1.30827,5.599939 -1.843717,8.420139 q -0.811966,4.230975 -4.841949,7.703962 -4.040804,3.470288 -12.570189,4.589736 c 6.147523,2.027146 10.726469,4.572205 13.723354,7.640572 2.999582,3.065669 4.801489,6.051763 5.419208,8.958282 q 0.92259,4.357756 2.19304,8.362143 1.263791,3.998992 6.224401,6.716688 4.957941,2.719045 15.105806,3.199205 c 0,0 -19.108845,0.73103 -23.63654,-1.320475 q -6.803037,-3.080393 -8.533461,-7.278998 a 56.646774,56.646774 0 0 1 -2.768949,-8.64133 Q 38.632171,72.091173 33.788929,67.771182 28.948327,63.45389 18.567131,61.050447 Z M 9.281106,53.961508 a 5.4104412,5.4104412 0 1 0 0,-10.820882 5.4104412,5.4104412 0 0 0 0,10.820882"
       id="path2"
       style="stroke-width:1.34873" />
  </g>
</svg>
