<?xml version="1.0" encoding="UTF-8"?>
<svg id="Layer_1" xmlns="http://www.w3.org/2000/svg" version="1.1" viewBox="0 0 2962.2 860.2">
  <!-- Generator: Adobe Illustrator 30.2.1, SVG Export Plug-In . SVG Version: 2.1.1 Build 1)  -->
  <defs>
    <style>
      .st0 {
        fill: #005616;
      }
    </style>
  </defs>
  <g id="sxJ1Ue.tif">
    <g>
      <path d="M1693.6,802.5l83-.2c24.5,0,43.3-13.2,49-37.6l19-81.8c-7.8,10.1-13.8,19.4-22.9,27.5-20,18.3-47,26.3-73.7,20.5-29.3-6.4-41.9-33.1-42.7-61.2-1.3-45.4,18.5-96.9,58.1-121.7,19.2-12,42.2-14.6,63.8-9.8,25.4,7.5,33.7,27,38.4,52.2l11.5-49.8c2.6-.4,5.2-.4,8.2,0l-50.5,220.9c-3.4,14.9-10.9,32.3-24.6,39.7-11.3,6.2-23.7,9.6-36.8,9.6h-81.2l1.4-8.1v-.2h0ZM1747.9,722c26.9,7.1,53.4-1.3,72.3-20.5,15.5-15.7,25.7-34.2,32.2-55.4,6.6-21.5,9.1-43.7,4.2-65.5-4.4-20-19-33.4-39.1-35.9-20.1-2.5-42.6,2.6-59.4,17-28.3,24.3-44.1,62.6-44.8,99.6-.5,25.2,6.6,53.5,34.6,60.9h0Z"/>
      <path d="M1591,546c-47.3-11.4-94.2,31.3-103.8,72.3l-25.8,110c-2.9.3-5.4.2-8.1-.2l43.3-187.6c2.8-.5,5-.5,8.2-.3l-9.9,44.6c23.2-32.5,55-54.8,96-47.6,33.3,7.5,36.8,40.5,30.3,68.8l-28,122.3-8.3.2,27.9-121.4c5-21.9,6.5-54.3-21.6-61h0Z"/>
      <path d="M2105.8,728.1c-3.1.5-5.6.5-8.8.4l-41.9-97-86.2,96.6c-3.6.7-6.9.7-11.1,0l80.9-90.3c4.3-4.8,8.9-8.6,13.8-12.2-5.1-6-9.1-12.6-12.5-19.8l-31.4-65.4c3.3-.5,6-.5,9,0l38.4,79.8,74.4-79.6c3.1-1.2,7.3-1,11.1,0l-63.1,67.1c-6.2,6.5-12.7,11.9-19.7,17.8,5.5,5.4,7.9,12.2,10.8,19.2l36.2,83.5v.2h0Z"/>
      <polygon points="151.2 618.2 1368 618.2 1366.5 626.5 149.7 626.5 151.2 618.2"/>
    </g>
  </g>
  <g>
    <path d="M801,393.2l-.7,137.7h-85.5V188.7h85.4c.4,11.3-.3,21.7,1.3,33.8,23.1-34.1,62.3-50,101.1-38.3,16.5,5,29.6,16.4,39.7,30,34.4,46.5,35.1,134,3.6,182.2-10.1,14.4-22.5,26.9-39,33.4-39.5,15.7-81,1.1-105.9-36.6ZM867.4,362.2c21-26.1,21-82.7-.4-108.4-13.2-15.9-36.4-16.1-49.9-.4-22.2,25.8-21.7,85.3.5,110.1,13.6,15.2,36.6,15,49.7-1.3h0Z"/>
    <path d="M310.4,301l-72.8.7v126.1h-87.8V98.1l159.7.5c31.3,0,58.9,13.6,79.4,36.1,30.8,37.6,30.9,91.7.6,129.6-20.1,22.8-47.6,36.5-79,36.8h0ZM323.2,199.8c0-20.8-15.1-35-34.7-35l-51,.2v69.5l53.6-.2c18.5,0,32-15.8,32.2-34.5h0Z"/>
    <polygon points="1484.6 427.8 1484.4 366 1558.8 365.8 1558.9 139.3 1484.5 139.1 1484.5 77.4 1644.5 77.4 1644.5 365.7 1718.7 365.9 1718.9 427.7 1484.6 427.8"/>
    <path d="M1888.2,364.3c9.1-8.6,14-18.1,17.7-30.3l68.4,13.3c-10.5,45.2-46.5,79.2-92.3,86.7-59.2,9.6-118.7-14.2-138.6-73.7-10.9-32.7-10.7-68.6.6-100.9,17.7-50.6,64.3-80.5,117.1-79.1,76.5,2,113.4,65.4,111.1,136.1h-155.4c-.7,12.5,3,25,9.7,35.9,13.2,21.3,40.9,26.9,61.5,12h0ZM1895.8,273.1c-2.4-10.8-6.9-18-13.9-24.6-12.8-8.3-30.1-9.5-43.4-1.1-9.3,5.8-14.6,15.1-18,25.7h75.3Z"/>
    <path d="M1156.7,364.3c9.1-8.5,13.9-18.1,17.7-30.3l68.4,13.3c-10.4,45.2-46.5,79.2-92.3,86.7-59.3,9.6-118.8-14.2-138.7-73.9-10.8-32.3-10.6-67.4.2-99.3,17.3-51.2,64.2-81.8,117.6-80.4,76.6,2,113.5,65.3,111.1,136.1h-155.6c-.2,12.7,3.2,25.1,9.9,35.9,13.2,21.3,40.9,27,61.5,12h0ZM1164.4,273.2c-2.4-9.4-6.3-18.5-14.2-24.4-12.3-9.1-30.4-9.4-43.3-1.3-9.3,5.9-14.4,15.1-17.9,25.6h75.3Z"/>
    <path d="M570.7,376.9c-7.1,13.6-12.5,25.7-23.2,35.5-14.3,13.3-32.6,19.3-52.3,19.4-40.4.2-75.6-23.1-73.6-65.7.9-20.1,9.7-37.2,26.5-49.2,30.5-21.8,55.8-22.4,87.8-40.6,8.1-4.6,18.2-15.3,12.4-22.2s-5-3-8-3.7h-96.3v-61.8c0,0,109.6,0,109.6,0,14.7.6,28.1,2.2,41.7,7.2,23.7,8.8,39.6,29.5,39.8,55.2l.7,90.6c0,13.5,11,23,23.7,23.9l10.1.7v61.3h-29.9c-13.1,0-25.9-3-37.3-8.6-16.9-8.2-26.9-22.2-31.6-42.2h0ZM511.3,370.1c6.8,5.9,16.2,6.5,24.8,2.7,18.1-7.9,16.5-38.3,16.1-55-3.6,4.3-7.4,9-12.5,11.2l-21.1,9.3c-5.8,2.5-10.6,8-11.8,13s-1,13.8,4.7,18.7h0Z"/>
    <path d="M2089.4,430.1c-33.5-8.9-68.5-33.6-78.9-68.9l66.6-27.2c11.8,22.1,31.6,42.1,57.2,39.8,4.3-.4,9.3-3.1,11.2-6,7.8-12.5-4.3-24.3-16.2-30.7l-47.3-25.2c-32.2-17.1-57.7-50.7-41.6-87.4,11.9-27,48.1-35,75.3-36h99.2v61.8h-88.6c-2.5.4-6.2,2.3-7,4.2s.7,7,2.7,8.2c31.6,18.6,88.3,38.3,103.8,72,10.4,22.6,6.7,50-9.2,69.1-29.5,35.7-86.1,36.9-127,26.1v.2h0Z"/>
    <path d="M1464.6,264.3l-68.5.2c-19.4,0-30.1,10.8-31.6,30.2v133.1h-85.7v-239h85.6l1,58.9,11.9-25.1c14.3-30.5,56.9-36.5,87.4-33.6v75.4h0Z"/>
    <path d="M2379.2,374.2c-26,1.2-44.6-18.4-56.5-40.1l-66.5,27.3c10.8,35.9,46.2,60.4,80.3,69.2h0c10.6,2.6,22,4.5,33.7,5.2,3.2-7.9,6.8-15.6,10.8-23.4,18.5-35.9,44.3-68.4,73.8-98.8-23.6-21.1-62.6-36.7-87-50.6-2.2-1.2-3.6-6.7-2.7-8.7.9-2,4.5-3.5,7.4-3.9h88.2v-61.8h-97.4c-27,.7-63.8,8.2-76.5,34.8-8.3,17.5-6.8,38.5,3.5,54.9,9.3,14.9,22.2,25.8,37.7,33.9l45.8,24.3c11.5,6.1,24.7,17,17.9,30.5-2.1,4.1-7.4,6.5-12.6,7.2h0Z"/>
  </g>
  <g>
    <path class="st0" d="M2373.8,821.2c-6.1-17.8-18.1-53.6-19.2-53.4-174.7-77.8-159.8-201.2-117.5-304.2,26.3,120.1,235.3,130.3,128,294.1-.7,2,8.8,24.3,17.1,44.9,19.9-45.4,51.3-101.1,48.8-105.7-199.9-357.4,278.8-444.7,350.7-690.2,72.6,220.1,46.5,577.5-330.4,713.3-1.8,1.2-55.6,130-58.5,131.4-.2-1.9-29.1,2.5-26.4-7.6,1.4-6.2,4.2-14.2,7.2-22.4h0v-.2h0ZM2358.1,731.2c42.3-62.9-11.1-105.7-49.8-133.2,71,94,58.1,105.7,49.8,133.2h0Z"/>
    <path class="st0" d="M2373.8,821.2c-6.1-17.8-18.1-53.6-19.2-53.4-174.7-77.8-159.8-201.2-117.5-304.2,26.3,120.1,235.3,130.3,128,294.1-.7,2,8.8,24.3,17.1,44.9,19.9-45.4,51.3-101.1,48.8-105.7-199.9-357.4,278.8-444.7,350.7-690.2,72.6,220.1,46.5,577.5-330.4,713.3-1.8,1.2-55.6,130-58.5,131.4-.2-1.9-29.1,2.5-26.4-7.6,1.4-6.2,4.2-14.2,7.2-22.4h0v-.2h0ZM2358.1,731.2c42.3-62.9-11.1-105.7-49.8-133.2,71,94,58.1,105.7,49.8,133.2h0Z"/>
  </g>
</svg>